<svg xmlns="http://www.w3.org/2000/svg" viewBox="0 0 2000 2000">
  <g transform="translate(-4200, -100) scale(3.2)">
    <path fill-rule="nonzero" fill="#428BCA" fill-opacity="1" d="M 1459.261719 471.011719 C 1445.980469 487.738281 1432.148438 506.109375 1431.390625 527.460938 C 1430.621094 548.808594 1450.199219 571.78125 1470.710938 565.800781 C 1481.75 562.570312 1489.199219 552.480469 1495.21875 542.679688 C 1501.238281 532.871094 1507.148438 522.238281 1517.148438 516.550781 C 1527.140625 510.859375 1542.609375 513.050781 1546.53125 523.859375 C 1548.179688 528.398438 1547.859375 534.171875 1551.738281 537.039062 C 1560.210938 543.300781 1567.769531 526.761719 1577.871094 523.78125 C 1586.78125 521.140625 1595.050781 530.570312 1596.679688 539.710938 C 1598.308594 548.859375 1596.109375 558.390625 1597.949219 567.5 C 1599.789062 576.601562 1608.640625 585.691406 1617.339844 582.441406 C 1621.179688 581.011719 1623.878906 577.539062 1625.929688 573.988281 C 1632.148438 563.21875 1634.289062 550.539062 1640.058594 539.53125 C 1645.828125 528.519531 1657.621094 518.761719 1669.691406 521.75 C 1685.570312 525.679688 1688.851562 546.570312 1688.300781 562.921875 C 1687.738281 579.269531 1689.121094 599.808594 1704.300781 605.910156 C 1709.460938 607.988281 1715.25 607.761719 1720.769531 607.128906 C 1733.179688 605.699219 1745.808594 602.089844 1755.171875 593.828125 C 1764.539062 585.558594 1769.808594 571.820312 1765.429688 560.121094 C 1759.410156 544.089844 1737.25 533.378906 1741.308594 516.738281 C 1745.941406 497.808594 1781.53125 494.128906 1777.589844 475.039062 C 1775.371094 464.261719 1760.53125 459.738281 1758.378906 448.941406 C 1756.339844 438.699219 1767.878906 430.089844 1778.320312 430.308594 C 1788.761719 430.539062 1798.101562 436.378906 1807.570312 440.78125 C 1833.078125 452.660156 1865.269531 454.019531 1887.878906 437.261719 C 1910.480469 420.511719 1917.101562 383.050781 1896.648438 363.730469 C 1877.730469 345.859375 1847.699219 350.03125 1822.171875 355.128906 C 1796.648438 360.238281 1766.339844 363.761719 1748.101562 345.179688 C 1732 327 1746 301 1777 309 C 1790.761719 312.550781 1801.609375 291.730469 1792 276 C 1781 258 1755 265 1745 261 C 1737.128906 257.851562 1733.609375 252.261719 1738 245 C 1739.46875 242.558594 1745.691406 238.570312 1748.210938 237.230469 C 1764.128906 228.828125 1778.320312 217.179688 1789.660156 203.210938 C 1796.640625 194.621094 1802.699219 184.738281 1803.929688 173.738281 C 1805.160156 162.738281 1800.5 150.519531 1790.621094 145.539062 C 1779.179688 139.78125 1765.328125 145.121094 1754.460938 151.910156 C 1728.621094 168.050781 1708.308594 192.191406 1681.648438 206.929688 C 1672.980469 211.730469 1662.738281 215.519531 1653.308594 212.480469 C 1634.648438 206.460938 1633.421875 181.351562 1630.320312 161.988281 C 1625.460938 131.699219 1606.75 103.921875 1580.511719 88.03125 C 1566.109375 79.308594 1547.839844 74.160156 1532.511719 81.089844 C 1500.121094 95.730469 1505.949219 148.078125 1477.460938 169.351562 C 1475.679688 170.691406 1473.71875 171.890625 1471.53125 172.320312 C 1465.550781 173.46875 1460.300781 168.679688 1455.519531 164.898438 C 1438.78125 151.621094 1408.121094 140.808594 1388 148 C 1374.199219 152.929688 1361.570312 163.019531 1373 181 C 1378.941406 190.339844 1397.808594 194.039062 1408.691406 191.988281 C 1428.539062 188.261719 1451.121094 189.460938 1466.058594 203.058594 C 1481 216.648438 1481.75 245.441406 1463.710938 254.53125 C 1447 262.960938 1420.148438 254.011719 1412.578125 271.128906 C 1407.160156 283.390625 1418.609375 295.949219 1428.101562 305.410156 C 1437.601562 314.871094 1446.078125 331.121094 1436.339844 340.339844 C 1425.78125 350.328125 1403.160156 340.851562 1396.738281 353.910156 C 1392.058594 363.449219 1402.359375 373.96875 1401.898438 384.589844 C 1401.429688 395.601562 1389.851562 402.589844 1379.230469 405.550781 C 1368.609375 408.511719 1356.691406 409.980469 1349.078125 417.960938 C 1340.839844 426.601562 1340.511719 440.070312 1342.53125 451.839844 C 1343.171875 455.511719 1344.039062 459.308594 1346.378906 462.210938 C 1351.011719 467.96875 1359.71875 468.339844 1366.890625 466.539062 C 1383.648438 462.328125 1396.710938 449.628906 1411.46875 440.648438 C 1437.25 424.96875 1489.550781 432.871094 1459.261719 471.011719 " />
    <path fill-rule="nonzero" fill="#428BCA" fill-opacity="1" d="M 1361.398438 245.640625 C 1357 243.910156 1352.429688 242.328125 1347.691406 242.308594 C 1342.960938 242.300781 1338 244.089844 1335.25 247.941406 C 1334.101562 249.570312 1333.078125 251.929688 1332.46875 253.839844 C 1331.230469 257.730469 1332.960938 261.621094 1335.839844 264.519531 C 1337.488281 266.179688 1339.949219 268.539062 1343.921875 269.320312 C 1351.5 270.820312 1383.21875 262.589844 1382.210938 255.988281 C 1380.148438 250.75 1368.089844 248.289062 1361.398438 245.640625 " />
    <path fill-rule="nonzero" fill="#428BCA" fill-opacity="1" d="M 1393.980469 106.21875 C 1388.941406 103.058594 1383.328125 100.050781 1377.171875 101.941406 C 1374.148438 102.871094 1371.761719 105.359375 1371.289062 108.488281 C 1370.519531 113.570312 1375.019531 117.121094 1379.039062 119.820312 C 1383.230469 122.640625 1400.878906 131.210938 1405.191406 131.71875 C 1412.761719 132.628906 1413.210938 131.789062 1410.628906 125.25 C 1407.890625 118.308594 1399.960938 109.960938 1393.980469 106.21875 " />
    <path fill-rule="nonzero" fill="#428BCA" fill-opacity="1" d="M 1849.488281 295.449219 C 1855.421875 295.109375 1861.738281 294.320312 1865.671875 289.199219 C 1867.589844 286.691406 1868.089844 283.289062 1866.671875 280.46875 C 1864.359375 275.871094 1858.640625 275.578125 1853.800781 275.710938 C 1848.75 275.839844 1829.390625 279.058594 1825.578125 281.140625 C 1818.890625 284.789062 1819 285.730469 1824.890625 289.570312 C 1831.148438 293.640625 1842.441406 295.859375 1849.488281 295.449219 " />
    <path fill-rule="nonzero" fill="#428BCA" fill-opacity="1" d="M 1562.460938 582.179688 C 1563.429688 591.148438 1563.558594 600.929688 1558.410156 608.328125 C 1557.320312 609.898438 1555.929688 611.371094 1554.121094 612 C 1551.308594 612.960938 1548.109375 611.589844 1546.160156 609.351562 C 1544.21875 607.101562 1543.308594 604.160156 1542.671875 601.261719 C 1539.800781 588.261719 1541.640625 574.328125 1547.480469 562.398438 C 1549.839844 557.570312 1553.339844 550.078125 1557.789062 556.210938 C 1561.78125 561.710938 1561.738281 575.539062 1562.460938 582.179688 " />
    <path fill-rule="nonzero" fill="#428BCA" fill-opacity="1" d="M 1846.679688 539.148438 C 1849.691406 542.589844 1854.320312 549.699219 1853.839844 554.238281 C 1852.910156 563 1844.710938 567.179688 1842.171875 567.640625 C 1831.109375 569.648438 1822.199219 557.378906 1816.601562 548.808594 C 1812.21875 542.109375 1807.328125 527.320312 1811.351562 523.300781 C 1814.390625 519.808594 1839.550781 530.988281 1846.679688 539.148438 " />
    <path fill-rule="nonzero" fill="#428BCA" fill-opacity="1" d="M 1389.921875 534.789062 C 1385.800781 538.390625 1380.25 540.648438 1374.820312 539.921875 C 1369.390625 539.199219 1364.308594 535.050781 1363.421875 529.640625 C 1362.300781 522.871094 1367.578125 516.640625 1373.421875 513.050781 C 1380.078125 508.960938 1387.75 506.910156 1395.300781 504.898438 C 1420.679688 498.148438 1397.390625 528.261719 1389.921875 534.789062 " />
    <path fill-rule="nonzero" fill="#428BCA" fill-opacity="1" d="M 1661.210938 117.210938 C 1663.121094 112.878906 1664.871094 108.371094 1665.070312 103.640625 C 1665.269531 98.910156 1663.660156 93.878906 1659.921875 90.988281 C 1658.339844 89.769531 1656.019531 88.671875 1654.140625 87.988281 C 1650.300781 86.601562 1646.339844 88.179688 1643.328125 90.941406 C 1641.609375 92.519531 1639.160156 94.890625 1638.21875 98.828125 C 1636.429688 106.339844 1643.441406 138.359375 1650.078125 137.609375 C 1655.390625 135.75 1658.308594 123.789062 1661.210938 117.210938 " />
    <path fill-rule="nonzero" fill="#428BCA" fill-opacity="1" d="M 1716.011719 154.941406 C 1719.96875 150.511719 1723.890625 145.488281 1723.058594 139.089844 C 1722.648438 135.960938 1720.609375 133.191406 1717.609375 132.199219 C 1712.71875 130.570312 1708.46875 134.410156 1705.128906 137.910156 C 1701.640625 141.570312 1690.199219 157.519531 1688.96875 161.679688 C 1686.800781 168.988281 1687.550781 169.570312 1694.429688 168.128906 C 1701.738281 166.609375 1711.300781 160.199219 1716.011719 154.941406 " />
    <path fill-rule="nonzero" fill="#428BCA" fill-opacity="1" d="M 1869.410156 498.621094 C 1875.339844 499.070312 1881.710938 499.128906 1886.28125 494.578125 C 1888.519531 492.351562 1889.46875 489.039062 1888.441406 486.050781 C 1886.75 481.191406 1881.121094 480.148438 1876.308594 479.628906 C 1871.28125 479.089844 1851.671875 479.71875 1847.609375 481.269531 C 1840.488281 484 1840.480469 484.949219 1845.808594 489.53125 C 1851.46875 494.398438 1862.371094 498.089844 1869.410156 498.621094 " />
  </g>
</svg>