<?xml version="1.0" encoding="utf-8"?>
<!-- Generator: Adobe Illustrator 27.5.0, SVG Export Plug-In . SVG Version: 6.00 Build 0)  -->
<svg version="1.1" xmlns="http://www.w3.org/2000/svg" xmlns:xlink="http://www.w3.org/1999/xlink" x="0px" y="0px"
	 viewBox="0 0 500 500" style="enable-background:new 0 0 500 500;" xml:space="preserve">
<g id="BACKGROUND">
	<rect style="fill:#FDFCFF;" width="500" height="500"/>
</g>
<g id="OBJECTS">
	<g>
		<g>
			<g>
				<ellipse style="fill:#CAE6FE;" cx="253.808" cy="438.373" rx="221.255" ry="13.999"/>
			</g>
		</g>
	</g>
	<g>
		<path style="fill:#CAE6FE;" d="M228.997,83.489c0,1.197-0.488,2.289-1.283,3.079c-0.785,0.795-1.877,1.283-3.074,1.283h-93.244
			c-2.395,0-4.357-1.962-4.357-4.362c0-1.198,0.488-2.289,1.283-3.079c0.785-0.795,1.876-1.283,3.074-1.283h4.407
			c1.741-4.045,5.761-6.872,10.439-6.872c3.149,0,5.997,1.283,8.06,3.35c2.747-4.659,7.813-7.788,13.614-7.788
			c1.595,0,3.129,0.241,4.578,0.679c3.034-5.705,9.031-9.589,15.943-9.589c8.301,0,15.284,5.605,17.392,13.232
			c1.529-0.765,3.255-1.203,5.086-1.203c5.177,0,9.544,3.456,10.917,8.19h2.808C227.035,79.127,228.997,81.09,228.997,83.489z"/>
		<path style="fill:#CAE6FE;" d="M322.07,102.985c0,1.046-0.426,1.999-1.121,2.689c-0.686,0.694-1.639,1.121-2.685,1.121H236.82
			c-2.092,0-3.805-1.714-3.805-3.81c0-1.046,0.426-2,1.121-2.689c0.685-0.695,1.639-1.121,2.685-1.121h3.85
			c1.52-3.533,5.031-6.002,9.118-6.002c2.751,0,5.238,1.12,7.04,2.926c2.399-4.069,6.824-6.802,11.891-6.802
			c1.393,0,2.733,0.211,3.999,0.593c2.65-4.983,7.888-8.376,13.926-8.376c7.251,0,13.35,4.895,15.191,11.557
			c1.336-0.668,2.843-1.05,4.443-1.05c4.522,0,8.336,3.019,9.536,7.154h2.452C320.356,99.175,322.07,100.889,322.07,102.985z"/>
	</g>
	<g>
		<g>
			<path style="fill:#ABD3F2;" d="M404.798,323.72l2.21,0.476l1.172,0.252l3.321,0.713c0,0,43.633-43.766,28.923-65.475
				c-4.528-6.683-15.874-5.023-19.725,19.356C417.129,301.64,404.798,323.72,404.798,323.72z"/>
			<g>
				<path style="fill:#90C3EF;" d="M407.008,324.196l1.172,0.252c8.515-11.133,14.642-23.868,18.392-32.949
					c4.453-10.782,6.614-18.887,6.635-18.967c0.077-0.289-0.095-0.586-0.385-0.661c-0.289-0.077-0.586,0.095-0.663,0.384
					c-0.021,0.081-2.167,8.13-6.596,18.848C421.793,300.227,415.609,313.064,407.008,324.196z"/>
			</g>
		</g>
		<g>
			<path style="fill:#ABD3F2;" d="M123.934,152.879l-2.642,0.05l-1.401,0.026l-3.97,0.073c0,0-40.239-60.004-18.492-81.61
				c6.695-6.652,19.34-2.2,18.287,26.633C114.742,124.779,123.934,152.879,123.934,152.879z"/>
			<g>
				<path style="fill:#90C3EF;" d="M121.292,152.928l-1.401,0.026c-7.271-14.683-11.442-30.67-13.707-41.929
					c-2.69-13.37-3.35-23.153-3.355-23.25c-0.024-0.349,0.241-0.651,0.59-0.673c0.349-0.024,0.651,0.241,0.674,0.589
					c0.006,0.098,0.662,9.813,3.338,23.104C109.708,122.111,113.922,138.227,121.292,152.928z"/>
			</g>
		</g>
		<g>
			<path style="fill:#CAE6FE;" d="M145.976,161.755l-3.182,2.124l-1.689,1.126l-4.783,3.19c0,0-95.914-41.724-86.275-85.047
				c2.967-13.337,21.858-17.785,43.093,18.187C112.826,134.679,145.976,161.755,145.976,161.755z"/>
			<g>
				<g>
					<path style="fill:#ABD3F2;" d="M142.794,163.879l-1.689,1.126c-20.33-12.222-37.9-28.452-49.455-40.41
						c-13.72-14.198-22.166-25.609-22.247-25.723c-0.302-0.407-0.215-0.982,0.194-1.281c0.407-0.302,0.982-0.215,1.282,0.192
						c0.084,0.115,8.47,11.446,22.113,25.559C104.605,135.356,122.328,151.712,142.794,163.879z"/>
				</g>
			</g>
		</g>
		<g>
			<path style="fill:#CAE6FE;" d="M388.232,333.911l2.592,1.998l1.376,1.059l3.896,3c0,0,84.283-30.027,78.578-67.561
				c-1.756-11.555-17.619-16.45-37.835,13.013C418.099,312.733,388.232,333.911,388.232,333.911z"/>
			<g>
				<path style="fill:#ABD3F2;" d="M390.824,335.909l1.376,1.059c18.062-9.247,34.001-22.076,44.557-31.609
					c12.535-11.319,20.407-20.565,20.483-20.658c0.281-0.33,0.24-0.826-0.091-1.104c-0.33-0.281-0.826-0.241-1.105,0.089
					c-0.079,0.093-7.895,9.276-20.359,20.526C425.076,313.79,408.999,326.717,390.824,335.909z"/>
			</g>
		</g>
		<g>
			<path style="fill:#ABD3F2;" d="M462.225,133.532c-3.771,10.718-14.617,9.844-14.821,18.686
				c-0.204,8.84-6.082,15.27-13.628,13.277c-7.548-1.995-12.991-3.885-16.904,4.727c-3.911,8.612-15.221,12.456-19.271,5.305
				c-1.01-1.779-2.099-3.708-3.164-5.6c-0.291-0.517-0.581-1.032-0.866-1.539c-0.067-0.117-0.134-0.234-0.199-0.351
				c-4.286-7.61-2.268-17.317,4.852-22.375c2.883-2.047,6.263-3.111,9.972-1.818c11.617,4.047,7.953-8.018,15.223-12.688
				c8.373-5.381,14.989,1.502,20.774-3.148C452.24,121.542,465.996,122.814,462.225,133.532z"/>
			<g>
				<g>
					<path style="fill:#90C3EF;" d="M447.93,137.542l-53.493,32.386c-0.291-0.517-0.581-1.032-0.866-1.539l53.444-32.357
						c0.417-0.252,0.96-0.12,1.212,0.297C448.48,136.746,448.347,137.289,447.93,137.542z"/>
				</g>
			</g>
		</g>
		<g>
			<path style="fill:#CAE6FE;" d="M455.291,77.909c1.555,14.453-11.451,19.424-6.812,29.745c4.638,10.319,1.396,20.984-8.416,22.843
				c-9.815,1.857-17.141,2.676-16.911,14.777c0.232,12.099-10.707,22.773-19.325,16.749c-2.147-1.498-4.467-3.124-6.74-4.721
				c-0.62-0.437-1.24-0.871-1.849-1.299c-0.142-0.098-0.284-0.197-0.423-0.296c-9.144-6.424-12.166-18.743-6.733-28.508
				c2.2-3.953,5.515-7.045,10.512-7.596c15.644-1.732,4.762-13.643,10.582-23.042c6.701-10.829,18.135-6.529,22.25-15.088
				C437.152,69.57,453.736,63.456,455.291,77.909z"/>
			<g>
				<path style="fill:#ABD3F2;" d="M440.997,90.419l-43.909,66.883c-0.62-0.437-1.24-0.871-1.849-1.299l43.869-66.822
					c0.342-0.521,1.043-0.667,1.564-0.325C441.193,89.198,441.339,89.898,440.997,90.419z"/>
			</g>
		</g>
		<g>
			<g>
				<path style="fill:#ABD3F2;" d="M326.235,149.18c7.08-19.574,14.312-35.849,21.537-48.447
					c9.438-16.459,18.904-26.643,28.134-30.271c0.612-0.24,1.303,0.061,1.543,0.673c0.24,0.612-0.061,1.303-0.673,1.543
					c-16.134,6.341-33.44,34.802-50.098,82.354L326.235,149.18z"/>
			</g>
			<path style="fill:#CAE6FE;" d="M357.409,86.763c0,0-9.103-4.018-1.414-19.746C355.995,67.017,368.185,77.118,357.409,86.763z"/>
			<path style="fill:#CAE6FE;" d="M353.025,94.666c0,0,3.505-9.313,19.637-2.511C372.662,92.156,363.255,104.889,353.025,94.666z"/>
			<path style="fill:#CAE6FE;" d="M369.863,75.263c0,0,0.199-9.948,17.676-8.914C387.539,66.35,382.915,81.491,369.863,75.263z"/>
			<path style="fill:#CAE6FE;" d="M343.716,110.295c0,0-9.926-0.702-8.01-18.104C335.706,92.191,350.594,97.574,343.716,110.295z"/>
			<path style="fill:#CAE6FE;" d="M340.47,119.023c0,0,1.841-9.778,18.907-5.869C359.376,113.155,352.313,127.323,340.47,119.023z"
				/>
			<path style="fill:#CAE6FE;" d="M334.837,130.532c0,0-9.937-0.513-8.352-17.949C326.485,112.584,341.473,117.683,334.837,130.532z
				"/>
		</g>
		<g>
			<g>
				<path style="fill:#ABD3F2;" d="M98.119,335.94c-18.41-9.714-33.53-19.124-45.01-28.018
					c-14.998-11.62-23.779-22.401-26.098-32.043c-0.153-0.639,0.24-1.282,0.879-1.436c0.639-0.154,1.282,0.24,1.436,0.879
					c4.053,16.855,29.852,37.924,74.65,60.987L98.119,335.94z"/>
			</g>
			<path style="fill:#CAE6FE;" d="M40.602,296.448c0,0-5.236,8.461-19.752-1.325C20.85,295.123,32.538,284.444,40.602,296.448z"/>
			<path style="fill:#CAE6FE;" d="M47.825,301.881c0,0-8.739-4.757,0.224-19.795C48.049,282.086,59.362,293.161,47.825,301.881z"/>
			<path style="fill:#CAE6FE;" d="M30.933,282.526c0,0-9.825-1.571-6.388-18.738C24.544,263.789,38.902,270.459,30.933,282.526z"/>
			<path style="fill:#CAE6FE;" d="M62.02,313.259c0,0-2.065,9.734-19.036,5.434C42.983,318.693,50.37,304.69,62.02,313.259z"/>
			<path style="fill:#CAE6FE;" d="M70.216,317.679c0,0-9.431-3.174-3.203-19.536C67.013,298.143,80.071,307.095,70.216,317.679z"/>
			<path style="fill:#CAE6FE;" d="M80.837,324.846c0,0-1.88,9.771-18.93,5.794C61.907,330.64,69.027,316.5,80.837,324.846z"/>
		</g>
	</g>
	<g>
		<g>
			<path style="fill:#2A3554;" d="M422.381,124.769v216.355c0,3.62-2.934,6.554-6.554,6.554H87.393c-3.62,0-6.554-2.934-6.554-6.554
				V124.769c0-3.62,2.934-6.554,6.554-6.554h328.434C419.447,118.215,422.381,121.148,422.381,124.769z"/>
			<path style="fill:#FFFFFF;" d="M413.323,134.04v197.812c0,3.678-2.978,6.656-6.655,6.656H96.546
				c-0.814,0-1.587-0.144-2.308-0.422c-2.535-0.927-4.337-3.369-4.337-6.233V134.04c0-3.678,2.977-6.656,6.645-6.656h310.122
				c0.886,0,1.741,0.175,2.514,0.495C411.613,128.868,413.323,131.258,413.323,134.04z"/>
			<g>
				<path style="fill:#CAE6FE;" d="M413.323,134.037v9.847H89.897v-9.847c0-3.674,2.977-6.652,6.652-6.652h310.122
					C410.346,127.385,413.323,130.362,413.323,134.037z"/>
				<g>
					<circle style="fill:#61B3FF;" cx="384.717" cy="135.635" r="3.231"/>
					<circle style="fill:#007CE6;" cx="372.762" cy="135.635" r="3.231"/>
					<path style="fill:#009EF3;" d="M399.903,135.635c0,1.784-1.447,3.231-3.231,3.231c-1.784,0-3.231-1.447-3.231-3.231
						c0-1.784,1.447-3.231,3.231-3.231C398.457,132.404,399.903,133.85,399.903,135.635z"/>
				</g>
			</g>
			<g>
				<g>
					<g>
						<rect x="150.408" y="166.782" style="fill:#009EF3;" width="18.066" height="20.379"/>
						<rect x="150.408" y="166.782" style="fill:#007CE6;" width="18.066" height="5.236"/>
					</g>
					<g>
						<path style="fill:#445279;" d="M172.247,159.886v2.421c0,0.352-0.042,0.697-0.121,1.027c-0.463,1.975-2.238,3.448-4.354,3.448
							H151.11c-2.115,0-3.891-1.473-4.354-3.448c-0.079-0.33-0.121-0.675-0.121-1.027v-2.421H172.247z"/>
						<path style="fill:#2A3554;" d="M172.126,163.334c-0.463,1.975-2.238,3.448-4.354,3.448H151.11
							c-2.115,0-3.891-1.473-4.354-3.448H172.126z"/>
					</g>
				</g>
				<polygon style="fill:#2A3554;" points="316.758,217.705 112.32,217.705 112.373,217.634 117.113,211.102 141.062,178.106 
					288.015,178.106 311.965,211.102 316.705,217.634 				"/>
				<rect x="112.32" y="217.705" style="fill:#009EF3;" width="204.438" height="82.596"/>
				<rect x="112.319" y="217.705" style="fill:#FFFFFF;" width="204.44" height="5.232"/>
				<rect x="112.319" y="220.321" style="opacity:0.2;" width="204.44" height="2.616"/>
				<polygon style="fill:#007CE6;" points="255.042,281.243 255.042,285.735 316.757,285.735 316.757,300.301 112.319,300.301 
					112.319,285.735 175.371,285.735 175.371,281.243 112.319,281.243 112.319,275.945 175.371,275.945 175.371,229.455 
					112.319,229.455 112.319,222.937 182.116,222.937 182.116,275.945 248.296,275.945 248.296,222.937 316.757,222.937 
					316.757,229.455 255.042,229.455 255.042,275.945 316.759,275.945 316.759,281.243 				"/>
				<rect x="182.116" y="222.937" style="fill:#007CE6;" width="66.18" height="6.518"/>
				<g>
					<g>
						<g>
							<polygon style="fill:#009EF3;" points="248.297,200.591 248.297,300.397 182.109,300.397 182.109,200.591 187.224,197.116 
								190.577,194.838 192.412,193.591 194.6,192.105 199.531,188.754 204.72,185.229 215.204,178.105 225.686,185.229 
								230.876,188.754 235.807,192.105 237.994,193.591 239.829,194.838 243.182,197.116 							"/>
						</g>
					</g>
					<g>
						<g>
							<polygon style="fill:#445279;" points="267.888,206.748 258.299,206.722 248.328,206.694 215.202,184.363 182.076,206.694 
								172.105,206.722 162.516,206.748 215.202,171.233 							"/>
						</g>
						<g>
							<polygon style="fill:#2A3554;" points="258.299,206.722 248.328,206.694 215.202,184.363 182.076,206.694 172.105,206.722 
								215.202,177.67 							"/>
						</g>
					</g>
				</g>
				<g>
					<g>
						<g>
							<path style="fill:#445279;" d="M122.283,265.683v-20.14c0-4.64,3.775-8.415,8.415-8.415c4.64,0,8.415,3.775,8.415,8.415
								v20.14H122.283z"/>
							<path style="fill:#2A3554;" d="M123.268,264.698v-19.156c0-4.097,3.333-7.43,7.43-7.43c4.097,0,7.43,3.333,7.43,7.43v19.156
								H123.268z"/>
							<path style="fill:#CAE6FE;" d="M136.898,245.541v17.926h-12.399v-17.926c0-3.422,2.777-6.199,6.198-6.199
								c1.585,0,3.028,0.593,4.123,1.575c0.089,0.074,0.177,0.158,0.261,0.241c0.714,0.714,1.255,1.603,1.556,2.595
								C136.807,244.32,136.898,244.921,136.898,245.541z"/>
							<path style="fill:#FFFFFF;" d="M136.637,243.754l-12.139,12.136v-4.65l10.322-10.322c0.089,0.074,0.177,0.158,0.261,0.241
								C135.795,241.874,136.337,242.762,136.637,243.754z"/>
							<polygon style="fill:#FFFFFF;" points="136.898,251.351 136.898,253.781 127.211,263.467 124.782,263.467 							"/>
							<rect x="123.668" y="251.405" style="fill:#2A3554;" width="14.06" height="1.512"/>
						</g>
						<path style="opacity:0.2;" d="M136.897,245.541v1.511c0-0.621-0.09-1.221-0.259-1.786c-0.301-0.993-0.843-1.881-1.556-2.595
							c-0.085-0.085-0.172-0.169-0.262-0.24c-1.096-0.983-2.537-1.577-4.122-1.577c-3.422,0-6.199,2.777-6.199,6.199v-1.511
							c0-3.422,2.777-6.199,6.199-6.199c1.585,0,3.025,0.594,4.122,1.575c0.09,0.074,0.177,0.158,0.262,0.243
							c0.713,0.713,1.255,1.601,1.556,2.595C136.807,244.32,136.897,244.92,136.897,245.541z"/>
					</g>
					<g>
						<g>
							<path style="fill:#445279;" d="M148.827,265.683v-20.14c0-4.64,3.775-8.415,8.415-8.415c4.64,0,8.415,3.775,8.415,8.415
								v20.14H148.827z"/>
							<path style="fill:#2A3554;" d="M149.812,264.698v-19.156c0-4.097,3.333-7.43,7.43-7.43c4.097,0,7.43,3.333,7.43,7.43v19.156
								H149.812z"/>
							<path style="fill:#CAE6FE;" d="M163.442,245.541v17.926h-12.4v-17.926c0-3.422,2.777-6.199,6.199-6.199
								c1.585,0,3.028,0.593,4.123,1.575c0.089,0.074,0.177,0.158,0.261,0.241c0.714,0.714,1.255,1.603,1.556,2.595
								C163.351,244.32,163.442,244.921,163.442,245.541z"/>
							<path style="fill:#FFFFFF;" d="M163.181,243.754l-12.139,12.136v-4.65l10.322-10.322c0.089,0.074,0.177,0.158,0.261,0.241
								C162.339,241.874,162.881,242.762,163.181,243.754z"/>
							<polygon style="fill:#FFFFFF;" points="163.442,251.351 163.442,253.781 153.756,263.467 151.326,263.467 							"/>
							<rect x="150.212" y="251.405" style="fill:#2A3554;" width="14.06" height="1.512"/>
						</g>
						<path style="opacity:0.2;" d="M163.441,245.541v1.511c0-0.621-0.09-1.221-0.259-1.786c-0.301-0.993-0.843-1.881-1.556-2.595
							c-0.085-0.085-0.172-0.169-0.262-0.24c-1.096-0.983-2.536-1.577-4.122-1.577c-3.422,0-6.199,2.777-6.199,6.199v-1.511
							c0-3.422,2.777-6.199,6.199-6.199c1.585,0,3.025,0.594,4.122,1.575c0.09,0.074,0.177,0.158,0.262,0.243
							c0.713,0.713,1.255,1.601,1.556,2.595C163.351,244.32,163.441,244.92,163.441,245.541z"/>
					</g>
				</g>
				<g>
					<g>
						<g>
							<path style="fill:#445279;" d="M264.87,265.683v-20.14c0-4.64,3.775-8.415,8.415-8.415c4.64,0,8.415,3.775,8.415,8.415v20.14
								H264.87z"/>
							<path style="fill:#2A3554;" d="M265.855,264.698v-19.156c0-4.097,3.333-7.43,7.43-7.43c4.097,0,7.43,3.333,7.43,7.43v19.156
								H265.855z"/>
							<path style="fill:#CAE6FE;" d="M279.485,245.541v17.926h-12.4v-17.926c0-3.422,2.777-6.199,6.199-6.199
								c1.585,0,3.028,0.593,4.123,1.575c0.089,0.074,0.177,0.158,0.261,0.241c0.714,0.714,1.255,1.603,1.556,2.595
								C279.394,244.32,279.485,244.921,279.485,245.541z"/>
							<path style="fill:#FFFFFF;" d="M279.224,243.754l-12.139,12.136v-4.65l10.322-10.322c0.089,0.074,0.177,0.158,0.261,0.241
								C278.383,241.874,278.924,242.762,279.224,243.754z"/>
							<polygon style="fill:#FFFFFF;" points="279.485,251.351 279.485,253.781 269.799,263.467 267.369,263.467 							"/>
							<rect x="266.255" y="251.405" style="fill:#2A3554;" width="14.06" height="1.512"/>
						</g>
						<path style="opacity:0.2;" d="M279.484,245.541v1.511c0-0.621-0.09-1.221-0.259-1.786c-0.301-0.993-0.843-1.881-1.556-2.595
							c-0.085-0.085-0.172-0.169-0.262-0.24c-1.097-0.983-2.537-1.577-4.122-1.577c-3.422,0-6.199,2.777-6.199,6.199v-1.511
							c0-3.422,2.777-6.199,6.199-6.199c1.585,0,3.025,0.594,4.122,1.575c0.09,0.074,0.177,0.158,0.262,0.243
							c0.713,0.713,1.255,1.601,1.556,2.595C279.395,244.32,279.484,244.92,279.484,245.541z"/>
					</g>
					<g>
						<g>
							<path style="fill:#445279;" d="M291.415,265.683v-20.14c0-4.64,3.775-8.415,8.415-8.415c4.64,0,8.415,3.775,8.415,8.415
								v20.14H291.415z"/>
							<path style="fill:#2A3554;" d="M292.399,264.698v-19.156c0-4.097,3.333-7.43,7.43-7.43s7.43,3.333,7.43,7.43v19.156H292.399z
								"/>
							<path style="fill:#CAE6FE;" d="M306.03,245.541v17.926H293.63v-17.926c0-3.422,2.777-6.199,6.198-6.199
								c1.585,0,3.028,0.593,4.123,1.575c0.089,0.074,0.177,0.158,0.261,0.241c0.714,0.714,1.255,1.603,1.556,2.595
								C305.939,244.32,306.03,244.921,306.03,245.541z"/>
							<path style="fill:#FFFFFF;" d="M305.769,243.754L293.63,255.89v-4.65l10.322-10.322c0.089,0.074,0.177,0.158,0.261,0.241
								C304.927,241.874,305.468,242.762,305.769,243.754z"/>
							<polygon style="fill:#FFFFFF;" points="306.03,251.351 306.03,253.781 296.343,263.467 293.913,263.467 							"/>
							<rect x="292.799" y="251.405" style="fill:#2A3554;" width="14.06" height="1.512"/>
						</g>
						<path style="opacity:0.2;" d="M306.029,245.541v1.511c0-0.621-0.09-1.221-0.259-1.786c-0.301-0.993-0.843-1.881-1.556-2.595
							c-0.085-0.085-0.172-0.169-0.262-0.24c-1.096-0.983-2.536-1.577-4.122-1.577c-3.422,0-6.199,2.777-6.199,6.199v-1.511
							c0-3.422,2.777-6.199,6.199-6.199c1.585,0,3.025,0.594,4.122,1.575c0.09,0.074,0.177,0.158,0.262,0.243
							c0.713,0.713,1.255,1.601,1.556,2.595C305.939,244.32,306.029,244.92,306.029,245.541z"/>
					</g>
				</g>
				<path style="fill:#2A3554;" d="M326.563,303.787H103.146c-0.993,0-1.797-0.805-1.797-1.797v-0.965
					c0-0.993,0.805-1.797,1.797-1.797h223.418c0.993,0,1.797,0.805,1.797,1.797v0.965
					C328.361,302.982,327.556,303.787,326.563,303.787z"/>
				<g>
					<rect x="204.244" y="257.564" style="fill:#2A3554;" width="22.134" height="38.12"/>
					
						<rect x="198.101" y="267.407" transform="matrix(-1.836970e-16 1 -1 -1.836970e-16 491.9359 61.313)" style="fill:#445279;" width="34.421" height="18.435"/>
					<path style="fill:#2A3554;" d="M223.188,277.298c0,0.902-0.731,1.632-1.632,1.632c-0.901,0-1.632-0.731-1.632-1.632
						c0-0.901,0.731-1.632,1.632-1.632C222.457,275.666,223.188,276.397,223.188,277.298z"/>
					<rect x="201.967" y="293.084" style="fill:#2A3554;" width="26.689" height="2.601"/>
					<path style="fill:#2A3554;" d="M226.246,258.438h-21.869c-1.084,0-1.963-0.879-1.963-1.963v-0.527h25.795v0.527
						C228.209,257.559,227.33,258.438,226.246,258.438z"/>
					<rect x="198.996" y="295.685" style="fill:#2A3554;" width="32.632" height="3.49"/>
				</g>
				<polygon style="fill:#007CE6;" points="182.076,206.694 182.076,215.187 215.203,192.196 248.297,215.187 248.328,206.694 
					215.202,184.363 				"/>
				<g>
					<g>
						<rect x="199.253" y="218.419" style="fill:#445279;" width="31.986" height="22.341"/>
						
							<rect x="205.152" y="214.673" transform="matrix(-1.836970e-16 1 -1 -1.836970e-16 444.8353 14.344)" style="fill:#2A3554;" width="20.187" height="29.833"/>
						<rect x="201.541" y="220.708" style="fill:#CAE6FE;" width="27.409" height="17.764"/>
						<g>
							<polygon style="fill:#FFFFFF;" points="228.95,220.707 228.95,222.338 212.816,238.472 208.629,238.472 226.393,220.707 
															"/>
						</g>
						<g>
							<polygon style="fill:#FFFFFF;" points="215.311,220.708 201.541,234.477 201.541,230.291 211.123,220.708 							"/>
						</g>
						<rect x="201.54" y="228.646" style="fill:#445279;" width="27.41" height="1.705"/>
						<rect x="201.54" y="229.499" style="fill:#2A3554;" width="27.41" height="0.852"/>
					</g>
					<rect x="199.253" y="218.419" style="opacity:0.2;" width="31.986" height="4.654"/>
					<path style="fill:#445279;" d="M231.308,218.419h-31.993c-0.86,0-1.556-0.697-1.556-1.556v-0.418h35.105v0.418
						C232.864,217.723,232.167,218.419,231.308,218.419z"/>
				</g>
				<path style="fill:#FFFFFF;" d="M172.612,299.136v-19.247h0.001v-1.986c0-1.548-1.255-2.803-2.803-2.803
					c-1.548,0-2.803,1.255-2.803,2.803v10.233h-4.389v-10.233c0-1.548-1.255-2.803-2.803-2.803c-1.548,0-2.803,1.255-2.803,2.803
					v10.233h-4.389v-10.233c0-1.548-1.255-2.803-2.803-2.803c-1.548,0-2.803,1.255-2.803,2.803v10.233h-4.389v-10.233
					c0-1.548-1.255-2.803-2.803-2.803l0,0c-1.548,0-2.803,1.255-2.803,2.803v10.233h-4.389v-10.233c0-1.548-1.255-2.803-2.803-2.803
					c-1.548,0-2.803,1.255-2.803,2.803v10.233h-4.389v-10.233c0-1.548-1.255-2.803-2.803-2.803c-1.548,0-2.803,1.255-2.803,2.803
					v21.233h5.606v-5.5h4.389v5.5h5.606v-5.5h4.389v5.5h5.606v-5.5h4.389v5.5h5.606v-5.5h4.389v5.5h5.606v-5.5h4.389v5.5H172.612z"
					/>
				<path style="fill:#FFFFFF;" d="M313.443,299.136v-19.247h0.001v-1.986c0-1.548-1.255-2.803-2.803-2.803
					s-2.803,1.255-2.803,2.803v10.233h-4.389v-10.233c0-1.548-1.255-2.803-2.803-2.803c-1.548,0-2.803,1.255-2.803,2.803v10.233
					h-4.389v-10.233c0-1.548-1.255-2.803-2.803-2.803c-1.548,0-2.803,1.255-2.803,2.803v10.233h-4.389v-10.233
					c0-1.548-1.255-2.803-2.803-2.803l0,0c-1.548,0-2.803,1.255-2.803,2.803v10.233h-4.389v-10.233c0-1.548-1.255-2.803-2.803-2.803
					c-1.548,0-2.803,1.255-2.803,2.803v10.233h-4.389v-10.233c0-1.548-1.255-2.803-2.803-2.803c-1.548,0-2.803,1.255-2.803,2.803
					v21.233h5.606v-5.5h4.389v5.5h5.606v-5.5h4.389v5.5h5.606v-5.5h4.389v5.5h5.606v-5.5h4.389v5.5h5.606v-5.5h4.389v5.5H313.443z"
					/>
			</g>
			<g>
				<g>
					<path style="fill:#61B3FF;" d="M306.406,164.551v23.443c0,1.501-1.214,2.706-2.706,2.706h-23.452
						c-1.029,0-1.918-0.565-2.381-1.408c-0.046-0.093-0.093-0.185-0.12-0.278c-0.046-0.139-0.093-0.278-0.139-0.426
						c0-0.019-0.009-0.028-0.009-0.046c0-0.018-0.009-0.046-0.009-0.065c-0.028-0.158-0.046-0.315-0.046-0.482v-23.443
						c0-1.408,1.066-2.548,2.418-2.696c0.093,0,0.195-0.009,0.287-0.009H303.7c0.278,0,0.547,0.037,0.797,0.12c0,0,0,0,0.009,0
						C305.609,162.309,306.406,163.328,306.406,164.551z"/>
				</g>
				<g>
					<g>
						<path style="fill:#FFFFFF;" d="M293.686,184.226l-0.019,2.338l-2.97-0.024l0.018-2.232c-2.105-0.144-4.143-0.729-5.401-1.518
							l1.63-3.609c1.383,0.833,3.233,1.374,4.854,1.387c1.411,0.012,1.919-0.279,1.923-0.785c0.015-1.853-8.148-0.424-8.103-5.921
							c0.019-2.38,1.763-4.367,5.221-4.823l0.019-2.296l2.97,0.024l-0.018,2.254c1.557,0.16,3.071,0.573,4.266,1.256l-1.525,3.589
							c-1.447-0.749-2.813-1.118-4.098-1.129c-1.453-0.012-1.92,0.406-1.924,0.911c-0.014,1.769,8.148,0.361,8.104,5.795
							C298.614,181.718,296.955,183.684,293.686,184.226z"/>
					</g>
				</g>
			</g>
			<g>
				<path style="fill:#007CE6;" d="M387.878,193.433h-48.989c-4.354,0-7.884-3.53-7.884-7.884v-4.232
					c0-4.354,3.53-7.884,7.884-7.884h48.989c4.354,0,7.884,3.53,7.884,7.884v4.232C395.762,189.903,392.233,193.433,387.878,193.433
					z"/>
				<g>
					
						<text transform="matrix(1 0 0 1 341.4453 189.9129)" style="fill:#0065D6; font-family:'Montserrat-Black'; font-size:15.2575px;">RENT</text>
					
						<text transform="matrix(1 0 0 1 341.4453 188.7615)" style="fill:#FFFFFF; font-family:'Montserrat-Black'; font-size:15.2575px;">RENT</text>
				</g>
			</g>
			<g>
				<path style="fill:#CAE6FE;" d="M393.14,213.953h-59.512c-1.448,0-2.623-1.174-2.623-2.623l0,0c0-1.449,1.174-2.623,2.623-2.623
					h59.512c1.448,0,2.623,1.174,2.623,2.623l0,0C395.762,212.779,394.588,213.953,393.14,213.953z"/>
				<path style="fill:#CAE6FE;" d="M393.14,226.862h-59.512c-1.448,0-2.623-1.174-2.623-2.623l0,0c0-1.448,1.174-2.623,2.623-2.623
					h59.512c1.448,0,2.623,1.174,2.623,2.623l0,0C395.762,225.688,394.588,226.862,393.14,226.862z"/>
				<path style="fill:#CAE6FE;" d="M393.14,239.771h-59.512c-1.448,0-2.623-1.174-2.623-2.623l0,0c0-1.449,1.174-2.623,2.623-2.623
					h59.512c1.448,0,2.623,1.174,2.623,2.623l0,0C395.762,238.597,394.588,239.771,393.14,239.771z"/>
				<path style="fill:#CAE6FE;" d="M393.14,252.681h-59.512c-1.448,0-2.623-1.174-2.623-2.623l0,0c0-1.448,1.174-2.623,2.623-2.623
					h59.512c1.448,0,2.623,1.174,2.623,2.623l0,0C395.762,251.507,394.588,252.681,393.14,252.681z"/>
				<path style="fill:#CAE6FE;" d="M393.14,265.59h-59.512c-1.448,0-2.623-1.174-2.623-2.623v0c0-1.448,1.174-2.623,2.623-2.623
					h59.512c1.448,0,2.623,1.174,2.623,2.623v0C395.762,264.416,394.588,265.59,393.14,265.59z"/>
				<path style="fill:#CAE6FE;" d="M393.14,278.5h-59.512c-1.448,0-2.623-1.174-2.623-2.623l0,0c0-1.448,1.174-2.623,2.623-2.623
					h59.512c1.448,0,2.623,1.174,2.623,2.623l0,0C395.762,277.325,394.588,278.5,393.14,278.5z"/>
			</g>
		</g>
		<rect x="228.319" y="347.677" style="fill:#16162F;" width="50.923" height="72.531"/>
		<path style="fill:#2A3554;" d="M309.027,433.27H198.534v-3.293c0-6.776,5.493-12.269,12.269-12.269h85.954
			c6.776,0,12.269,5.493,12.269,12.269V433.27z"/>
		<g>
			<path style="fill:#16162F;" d="M358.75,351.633h-14.199c-1.722,0-3.118-1.396-3.118-3.118v-0.837h20.435v0.837
				C361.868,350.237,360.472,351.633,358.75,351.633z"/>
			<path style="fill:#16162F;" d="M390.089,351.633H375.89c-1.722,0-3.118-1.396-3.118-3.118v-0.837h20.435v0.837
				C393.207,350.237,391.811,351.633,390.089,351.633z"/>
			<path style="fill:#16162F;" d="M327.41,351.633h-14.199c-1.722,0-3.118-1.396-3.118-3.118v-0.837h20.435v0.837
				C330.529,350.237,329.132,351.633,327.41,351.633z"/>
		</g>
		<path style="opacity:0.3;fill:#FFFFFF;" d="M413.323,134.04v197.812c0,3.678-2.978,6.656-6.655,6.656H96.546
			c-0.814,0-1.587-0.144-2.308-0.422l314.943-210.206C411.613,128.868,413.323,131.258,413.323,134.04z"/>
	</g>
	<g>
		<g>
			<g>
				<g>
					<path style="fill:#FDA893;" d="M319.542,188.137c1.59-0.465,8.504,3.13,8.798,3.179c0.294,0.049,1.62-0.403,2.977-0.581
						c1.357-0.177,2.17,0.251,3.289,2.072c1.119,1.828,2.097,5.001,2.097,5.001c0.654,0.263,1.383,0.542,2.162,0.833
						c-1.007,2.101-2.079,4.167-3.229,6.196c-1.192-0.672-2.266-1.287-3.17-1.814c-0.66,0.263-1.333,0.361-1.969,0.22
						c-1.669-0.373-3.094-0.813-3.925-1.089c-0.495-0.171-0.783-0.275-0.783-0.275s-0.012,0.006-0.024,0.018
						c-0.153,0.073-0.911,0.404-2.446,0c-1.724-0.459-2.892-1.7-2.916-2.543c-0.031-0.85,0.954-1.333,0.954-1.333
						s-0.728-0.617-0.691-1.51c0.036-0.899,1.577-1.767,1.577-1.767s-0.74-0.917-0.092-1.822c0.612-0.874,2.708-0.098,2.886-0.037
						C324.739,192.704,317.989,188.589,319.542,188.137z"/>
					<g>
						<g>
							<path style="fill:#FD896B;" d="M332.533,196.076c0.061,0,0.122-0.015,0.179-0.046c0.183-0.099,0.252-0.328,0.153-0.511
								l-0.839-1.552c-0.05-0.093-0.137-0.161-0.24-0.187c-0.103-0.026-0.211-0.007-0.3,0.051c-0.017,0.011-1.732,1.118-3.307,0.725
								c-0.482-0.121-0.806-0.321-0.937-0.579c-0.148-0.292-0.024-0.604-0.023-0.608c0.078-0.192-0.012-0.412-0.203-0.492
								c-0.19-0.08-0.409,0.006-0.492,0.196c-0.027,0.063-0.258,0.633,0.037,1.231c0.233,0.473,0.716,0.804,1.434,0.984
								c1.442,0.361,2.897-0.271,3.551-0.621l0.654,1.21C332.269,196.004,332.399,196.076,332.533,196.076z"/>
						</g>
						<g>
							<path style="fill:#FD896B;" d="M325.763,201.899c0.018-0.012,0.028-0.018,0.028-0.018s0.284,0.106,0.783,0.272
								c0.662-0.78,0.71-1.714,0.752-2.499c0.035-0.682,0.068-1.273,0.428-1.703c0.372-0.443,0.523-0.934,0.551-1.402
								c0.033-0.45-0.053-0.883-0.164-1.233c-0.04-0.131-0.083-0.252-0.126-0.355c-0.111-0.272-0.214-0.445-0.227-0.468
								c-0.108-0.179-0.34-0.239-0.518-0.131c-0.179,0.106-0.237,0.337-0.131,0.516c0.002,0.003,0.018,0.03,0.043,0.081
								c0.108,0.206,0.37,0.783,0.37,1.404c0,0.375-0.095,0.768-0.377,1.105c-0.521,0.622-0.564,1.396-0.604,2.146
								C326.526,200.465,326.483,201.275,325.763,201.899z"/>
						</g>
						<g>
							<path style="fill:#FD896B;" d="M331.012,199.099c0.142,0,0.277-0.08,0.342-0.217c0.089-0.189,0.008-0.413-0.181-0.502l0,0
								c-0.023-0.011-2.261-1.094-2.486-3.227c-0.022-0.207-0.209-0.358-0.415-0.336c-0.207,0.022-0.357,0.207-0.336,0.415
								c0.27,2.561,2.808,3.78,2.915,3.831C330.904,199.087,330.958,199.099,331.012,199.099z"/>
						</g>
					</g>
				</g>
				<path style="fill:#61B3FF;" d="M338.78,198.552c14.143,4.782,24.818,7.961,35.861,10.662c19.768,4.836,30.29,1.991,30.29,1.991
					l-7.427,13.649l-1.321,2.428c-2.169,0.586-4.713,0.639-7.294,0.392c-7.4-0.697-15.099-3.832-15.099-3.832
					c-20.267-7.918-33.528-14.267-39.017-18.062L338.78,198.552z"/>
				<polygon style="fill:#009EF3;" points="339.143,197.553 342.548,199.15 337.882,208.099 334.366,206.074 				"/>
				<path style="fill:#009EF3;" d="M388.889,227.676c2.581,0.246,5.125,0.194,7.294-0.393l1.321-2.428
					c-0.277-1.218-0.981-2.217-2.355-2.753C395.149,222.102,393.405,225.65,388.889,227.676z"/>
			</g>
			<g>
				<g>
					<path style="fill:#FDA893;" d="M454.863,408.039l5.797,7.455c0,0-1.059,3.333-5.351,5.901l-6.933-8.578L454.863,408.039z"/>
					<g>
						<g>
							<path style="fill:#007CE6;" d="M456.27,419.085c0,0-2.712-0.562-3.64,0.34c-0.928,0.901-3.256,13.165-5.435,15.848
								c-2.179,2.683,0.015,4.109,1.356,4.652c1.341,0.544,20.556-17.913,20.556-17.913s-4.75-6.309-7.041-7.535
								C459.776,413.253,458.702,417.787,456.27,419.085z"/>
						</g>
						<g>
							<g>
								<path style="fill:#FFFFFF;" d="M455.822,425.874c0.117-0.049,0.214-0.142,0.261-0.267c0.092-0.242-0.037-0.509-0.288-0.597
									c-0.084-0.03-2.075-0.72-3.623-0.362c-2.06,0.473-2.496,2.174-2.513,2.246c-0.061,0.25,0.101,0.501,0.361,0.559
									c0.26,0.059,0.521-0.097,0.582-0.348c0.012-0.046,0.33-1.213,1.796-1.552c1.261-0.291,3.047,0.325,3.064,0.332
									C455.584,425.927,455.713,425.92,455.822,425.874z"/>
							</g>
							<g>
								<path style="fill:#FFFFFF;" d="M456.043,423.976c0.117-0.049,0.214-0.142,0.261-0.267c0.092-0.242-0.037-0.509-0.288-0.597
									c-0.084-0.03-2.075-0.72-3.623-0.363c-2.062,0.474-2.496,2.174-2.513,2.246c-0.061,0.25,0.101,0.501,0.361,0.559
									c0.26,0.059,0.521-0.097,0.582-0.348c0.012-0.046,0.33-1.214,1.796-1.553c1.267-0.292,3.046,0.326,3.064,0.332
									C455.805,424.029,455.933,424.022,456.043,423.976z"/>
							</g>
							<g>
								<path style="fill:#FFFFFF;" d="M455.044,427.902c0.117-0.049,0.214-0.142,0.261-0.267c0.092-0.242-0.037-0.509-0.288-0.598
									c-0.084-0.03-2.075-0.72-3.623-0.363c-2.062,0.474-2.496,2.174-2.513,2.247c-0.061,0.25,0.101,0.501,0.362,0.559
									c0.26,0.059,0.521-0.097,0.582-0.348c0.012-0.046,0.331-1.214,1.796-1.552c1.267-0.292,3.046,0.325,3.064,0.332
									C454.806,427.955,454.934,427.948,455.044,427.902z"/>
							</g>
						</g>
					</g>
				</g>
				<g>
					<path style="fill:#16162F;" d="M418.231,306.815l5.233,49.698c0,0,6.861,8.179,11.869,17.299
						c4.202,7.655,22.094,35.021,22.094,35.021l-8.56,7l-44.649-50.111l-9.876-59.414L418.231,306.815z"/>
				</g>
			</g>
			<g>
				<g>
					<path style="fill:#FDA893;" d="M410.062,422.344l-0.879,9.641c0,0-3.106,1.868-8.083,0.982l0.816-11.27L410.062,422.344z"/>
					<g>
						<g>
							<path style="fill:#007CE6;" d="M402.856,431.612c0,0-1.696-2.347-3.07-2.268c-1.375,0.079-12.089,8.35-15.729,8.993
								c-3.639,0.643-2.973,3.326-2.328,4.701c0.646,1.375,28.819,0.587,28.819,0.587s1.038-9.094,0.151-11.683
								C409.813,429.353,405.686,432.262,402.856,431.612z"/>
						</g>
						<g>
							<g>
								<path style="fill:#FFFFFF;" d="M397.378,436.565c0.12,0.044,0.257,0.041,0.381-0.019c0.24-0.118,0.34-0.407,0.222-0.648
									c-0.039-0.08-0.979-1.977-2.353-2.78c-1.827-1.072-3.366-0.097-3.431-0.055c-0.224,0.146-0.288,0.446-0.142,0.67
									c0.145,0.224,0.446,0.288,0.67,0.142c0.042-0.026,1.112-0.682,2.414,0.079c1.12,0.655,1.964,2.354,1.972,2.371
									C397.168,436.44,397.265,436.524,397.378,436.565z"/>
							</g>
							<g>
								<path style="fill:#FFFFFF;" d="M398.904,435.294c0.12,0.044,0.257,0.041,0.381-0.02c0.24-0.118,0.34-0.408,0.222-0.648
									c-0.039-0.081-0.979-1.977-2.353-2.781c-1.829-1.072-3.366-0.097-3.431-0.055c-0.224,0.146-0.288,0.446-0.142,0.67
									c0.145,0.224,0.446,0.288,0.67,0.142c0.042-0.026,1.113-0.682,2.414,0.079c1.124,0.658,1.963,2.354,1.971,2.371
									C398.694,435.169,398.791,435.253,398.904,435.294z"/>
							</g>
							<g>
								<path style="fill:#FFFFFF;" d="M395.355,437.548c0.12,0.044,0.257,0.041,0.381-0.019c0.24-0.118,0.34-0.408,0.222-0.648
									c-0.039-0.08-0.979-1.977-2.353-2.781c-1.829-1.072-3.366-0.097-3.431-0.055c-0.224,0.146-0.288,0.446-0.142,0.67
									c0.145,0.224,0.446,0.288,0.67,0.142c0.042-0.026,1.113-0.682,2.414,0.079c1.124,0.658,1.963,2.353,1.971,2.371
									C395.145,437.423,395.243,437.506,395.355,437.548z"/>
							</g>
						</g>
					</g>
				</g>
				<g>
					<g>
						<path style="fill:#2A3554;" d="M445.42,308.25c0,0-10.44,37.13-24.02,57.16c0,0-2.03,19.49-5.49,29.87
							c-1.52,4.54-5.37,31.59-5.37,31.59l-1.67-0.24l-0.99-0.15l-7.41-1.07l3.33-64.38l16.32-50.84l21.07-1.62l1.12-0.08
							L445.42,308.25z"/>
					</g>
					<g>
						<path style="fill:#16162F;" d="M442.31,308.49l-23.1,56.95c-0.01,0.07-3.45,15.53-5.39,26.4c-1.74,9.67-4.27,26.51-4.95,34.79
							l-0.99-0.15c0.69-8.36,3.17-24.92,4.95-34.82c1.95-10.88,5.4-26.36,5.43-26.52l22.93-56.57L442.31,308.49z"/>
					</g>
				</g>
			</g>
			<g>
				<g>
					<g>
						<g>
							<path style="fill:#61B3FF;" d="M392.792,305.449c0,2.106,0.005,3.776,0.02,4.904c4.989,1.344,9.976,2.317,14.963,2.914
								c0.131,0.015,0.264,0.033,0.398,0.048c0.224,0.028,0.443,0.053,0.664,0.078c0.055,0.005,0.108,0.01,0.166,0.015
								c0.866,0.096,1.726,0.179,2.594,0.249c4.287,0.352,8.575,0.43,12.862,0.231c0.377-0.018,0.75-0.038,1.127-0.06
								c0.335-0.018,0.674-0.038,1.014-0.063c0.151-0.008,0.305-0.018,0.458-0.03c0.287-0.02,0.569-0.043,0.855-0.063
								c6.3-0.511,12.6-1.613,18.898-3.319c0.033-2.481,0.063-7.535,0.073-14.055c0-0.357,0.003-0.72,0-1.087
								c0.008-7.191-0.02-16.017-0.106-25.105c-0.008-0.719-0.015-1.437-0.025-2.159c-0.008-0.833-0.015-1.671-0.025-2.511
								c-0.003-0.141-0.003-0.284-0.005-0.425c-0.005-0.196-0.008-0.392-0.01-0.591c-0.003-0.395-0.008-0.793-0.015-1.185
								c-0.008-0.576-0.015-1.15-0.025-1.721c-0.005-0.435-0.013-0.871-0.018-1.306c-0.013-0.866-0.028-1.731-0.04-2.592
								c-0.304-18.042-0.913-34.623-2.073-38.842c-0.108-0.39-0.221-0.674-0.335-0.843c-0.123-0.189-0.277-0.377-0.448-0.574
								c-0.216-0.247-0.468-0.501-0.75-0.757c-1.932-1.779-5.284-3.844-8.683-5.805c-0.395-0.229-0.795-0.455-1.188-0.682
								c-0.06-0.033-9.236-3.127-9.294-3.163l-9.599,0.672c-1.152,0.677-10.233,3.764-11.347,4.458
								c-0.33,0.206-0.654,0.413-0.974,0.616c-2.612,1.683-4.831,3.357-5.799,4.778c-1.396,2.053-2.242,20.473-2.73,40.513
								c-0.012,0.463-0.023,0.923-0.035,1.384c-0.05,2.121-0.096,4.252-0.138,6.383c-0.043,2.103-0.081,4.202-0.116,6.285
								c-0.055,3.409-0.106,6.766-0.146,9.999c-0.005,0.367-0.008,0.732-0.012,1.097c-0.038,3.152-0.068,6.174-0.091,8.997
								c-0.003,0.37-0.005,0.735-0.008,1.097c-0.033,4.237-0.053,7.988-0.055,11v0.003
								C392.792,304.656,392.792,305.056,392.792,305.449z"/>
						</g>
					</g>
				</g>
				<g>
					<path style="fill:#009EF3;" d="M437.278,242.264c0-0.477,0.607-0.686,0.896-0.306c3.857,5.081,6.185,10.62,7.561,14.999
						c0.352,1.125,0.657,2.214,0.921,3.251c0.005,0.435,0.013,0.87,0.018,1.306c0.01,0.571,0.018,1.145,0.025,1.721
						c0.008,0.392,0.013,0.79,0.015,1.185c0.002,0.199,0.005,0.395,0.01,0.591c0.003,0.141,0.003,0.284,0.005,0.425
						c-0.362-2.194-0.964-5.057-1.952-8.207c-1.348-4.284-3.629-9.703-7.397-14.665
						C437.313,242.477,437.278,242.372,437.278,242.264L437.278,242.264z"/>
				</g>
				<g>
					<path style="fill:#009EF3;" d="M435.324,294.63c0,0-0.001,0-0.002,0c-10.365-0.046-19.212-4.762-24.808-8.711
						c-6.053-4.27-9.721-8.598-9.757-8.641c-0.177-0.211-0.15-0.526,0.061-0.703c0.211-0.177,0.525-0.15,0.703,0.06
						c0.035,0.042,3.637,4.287,9.591,8.484c5.475,3.859,14.12,8.468,24.215,8.512c0.275,0.001,0.498,0.225,0.496,0.501
						C435.822,294.409,435.599,294.63,435.324,294.63z"/>
				</g>
				<g>
					<path style="fill:#009EF3;" d="M424.522,298.152c-8.994,0-17.963-5.125-18.371-5.361c-0.238-0.138-0.32-0.443-0.182-0.681
						c0.138-0.238,0.443-0.319,0.681-0.182c0.105,0.061,10.659,6.088,20.016,5.12c0.278-0.031,0.519,0.171,0.547,0.445
						c0.029,0.274-0.171,0.519-0.444,0.547C426.024,298.116,425.273,298.152,424.522,298.152z"/>
				</g>
			</g>
			<g>
				<g>
					<path style="fill:#FDA893;" d="M464.045,320.978c0.236,2.561-2.884,1.172-2.001-4.018c0.88-5.19-1.62-9.89-2.698-9.74
						c-1.081,0.153,0.893,5.668-0.067,7.656c-0.958,1.987-2.197-1.875-3.431-4.217c-1.279-2.433-1.204-7.741-0.622-11.529
						c0.582-3.79-6.285-26.802-6.32-33.471l-0.837-2.827l-3.063-10.351l-4.796-16.21c0,0,2.873-12.269,7.718-11.215
						c0,0,2.564,8.546,5.306,18.184c0.464,1.636,0.934,3.305,1.398,4.968c1.953,6.988,3.787,13.887,4.641,17.98
						c2.253,10.807,2.427,33.272,2.427,33.272s3.975,8.254,4.069,11.926C465.867,315.302,463.812,318.417,464.045,320.978z"/>
					<path style="fill:#61B3FF;" d="M443.721,217.781c0.083,0.185,0.335-0.386,0.485-0.038c0.561,1.296,3.05,4.496,4.281,7.613
						c0.158,0.397,0.319,0.81,0.486,1.231c1.771,4.553,11.533,34.525,13.529,60.101l-9.512,1.783
						c-3.013-16.735-4.902-21.791-6.755-30.047c-0.96-3.216-1.955-6.304-2.889-9.142c-0.003-0.008-0.006-0.013-0.008-0.021
						c-0.373-1.135-0.738-2.229-1.086-3.275c-0.005-0.019-0.011-0.038-0.019-0.053c-0.121-0.368-0.239-0.73-0.359-1.084v-0.003
						c-1.392-4.209-2.47-7.554-2.779-9.504C438.263,230.093,440.529,219.808,443.721,217.781z"/>
					<polygon style="fill:#009EF3;" points="463.073,284.854 463.717,288.739 452.45,290.509 451.664,286.65 					"/>
					<g>
						<path style="fill:#16162F;" d="M462.295,290.936c0,0-6.226-0.462-8.868,1.425l0.553,3.645c0,0,7.277-0.815,8.975-0.72
							C462.956,295.285,463.122,291.685,462.295,290.936z"/>
						<path style="fill:#2A3554;" d="M459.158,293.392c0,1.671,1.125,3.025,2.512,3.025c1.387,0,2.512-1.354,2.512-3.025
							c0-1.67-1.125-3.025-2.512-3.025C460.283,290.368,459.158,291.722,459.158,293.392z"/>
						<path style="fill:#445379;" d="M460.26,293.287c0,1.222,0.822,2.212,1.837,2.212c1.015,0,1.837-0.99,1.837-2.212
							c0-1.222-0.822-2.212-1.837-2.212C461.083,291.074,460.26,292.065,460.26,293.287z"/>
					</g>
				</g>
			</g>
			<g>
				<g>
					<path style="fill:#2A3554;" d="M434.916,182.933c0,8.763-5.395,14.803-14.159,14.803s-14.871-6.493-14.871-15.257
						c0-8.763,5.189-15.403,13.952-15.403C430.349,167.077,434.916,174.17,434.916,182.933z"/>
					<path style="fill:#2A3554;" d="M434.916,182.933c0,0-0.079-3.505,1.243-4.726c0.67-0.619,1.01-2.181,0-4.031
						c-1.01-1.85-1.954-2.214-0.946-4.792c1.008-2.577-1.09-4.857-2.61-5.056c-1.52-0.198-5.187,1.85-7.037-0.595
						c-1.85-2.445-4.202-3.635-6.76-2.842c-2.558,0.793-6.057,1.164-7.612-0.244c-1.555-1.408-6.049,0.641-5.719,3.416
						c0.331,2.776,2.683,5.551,1.408,6.741c-1.275,1.19-3.02,4.776,0,5.428C409.903,176.886,434.916,182.933,434.916,182.933z"/>
					<g>
						<path style="fill:#FD896B;" d="M432.947,186.707c0,0,2.435-3.246,4.245-0.562c1.81,2.684-0.749,10.613-5.182,8.678
							L432.947,186.707z"/>
						<g>
							<g>
								<g>
									<path style="fill:#D65C48;" d="M432.979,192.372c0.164,0,0.314-0.108,0.361-0.274c0.687-2.448,3.223-3.44,3.248-3.45
										c0.193-0.074,0.29-0.29,0.217-0.483c-0.073-0.193-0.289-0.29-0.482-0.218c-0.119,0.045-2.913,1.13-3.705,3.948
										c-0.056,0.199,0.06,0.406,0.26,0.462C432.911,192.368,432.945,192.372,432.979,192.372z"/>
								</g>
							</g>
						</g>
						<g>
							<path style="fill:#D65C48;" d="M435.538,191.139c0.069,0,0.14-0.019,0.202-0.06c0.174-0.112,0.224-0.344,0.112-0.518
								c-0.019-0.029-0.467-0.713-1.406-1.133c-0.188-0.085-0.41,0-0.495,0.189c-0.084,0.189,0,0.41,0.189,0.495
								c0.726,0.325,1.079,0.85,1.082,0.855C435.295,191.079,435.415,191.139,435.538,191.139z"/>
						</g>
					</g>
					<g>
						<path style="fill:#FD896B;" d="M407.856,186.707c0,0-2.435-3.246-4.245-0.562c-1.81,2.684,0.749,10.613,5.182,8.678
							L407.856,186.707z"/>
						<g>
							<g>
								<g>
									<path style="fill:#D65C48;" d="M407.824,192.372c-0.164,0-0.314-0.108-0.361-0.274c-0.687-2.448-3.223-3.44-3.248-3.45
										c-0.193-0.074-0.29-0.29-0.217-0.483c0.073-0.193,0.289-0.29,0.482-0.218c0.119,0.045,2.913,1.13,3.704,3.948
										c0.056,0.199-0.06,0.406-0.26,0.462C407.892,192.368,407.858,192.372,407.824,192.372z"/>
								</g>
							</g>
						</g>
						<g>
							<g>
								<g>
									<path style="fill:#D65C48;" d="M405.264,191.139c-0.069,0-0.14-0.019-0.203-0.06c-0.174-0.112-0.224-0.344-0.112-0.518
										c0.019-0.029,0.467-0.713,1.406-1.133c0.188-0.085,0.41,0,0.495,0.189c0.085,0.189,0,0.41-0.189,0.495
										c-0.726,0.325-1.079,0.85-1.082,0.855C405.508,191.079,405.387,191.139,405.264,191.139z"/>
								</g>
							</g>
						</g>
					</g>
					<path style="fill:#FDA893;" d="M414.408,201.547v8.342c0,0,0.893,4.325,3.506,4.634c3.656,0.433,8.026-5.811,8.026-5.811
						v-6.611L414.408,201.547z"/>
					<path style="fill:#FD896B;" d="M414.408,201.547v3.499c2.134,2.368,5.923,2.959,11.531,2.131v-5.076L414.408,201.547z"/>
					<path style="fill:#FDA893;" d="M434.24,186.558c-0.032,0.457-0.07,0.919-0.116,1.386c-0.118,1.174-0.277,2.381-0.492,3.582
						c-0.008,0.043-0.013,0.083-0.022,0.121c-1.059,5.815-3.439,11.53-8.569,13.362c-11.621,4.149-15.77-5.815-17.43-11.624
						c-0.183-0.645-0.349-1.362-0.494-2.128c-0.005-0.03-0.011-0.062-0.019-0.097c-0.161-0.86-0.301-1.776-0.419-2.719
						c-0.089-0.699-0.164-1.408-0.231-2.123c-0.169-1.736-0.279-3.477-0.352-5.022c-0.169-3.531,1.945-6.779,5.253-8.048
						c4.767-1.833,12.003-3.283,18.86,0.605c2.534,1.435,4.122,4.095,4.178,7.005C434.417,182.465,434.393,184.438,434.24,186.558z"
						/>
					<path style="fill:#2A3554;" d="M432.81,186.773c0,0-1.08,4.493-2.297,7.585c-2.558-2.668-10.111,0.016-10.111,0.016
						s-8.472-3.071-9.995,0.647c-0.973-1.787-1.72-5.619-2.217-8.249l-1.741-0.454c0.067,0.715,0.143,1.424,0.231,2.123
						c0.118,0.943,0.258,1.86,0.419,2.719c0.008,0.035,0.014,0.067,0.019,0.097c0.145,0.766,0.312,1.483,0.494,2.128
						c1.66,5.809,5.809,15.773,17.43,11.624c5.129-1.832,7.51-7.548,8.569-13.362c0.008-0.037,0.014-0.078,0.022-0.121
						c0.215-1.201,0.374-2.408,0.492-3.582c0.046-0.468,0.083-0.93,0.116-1.386L432.81,186.773z M427.364,199.396
						c-3.093,2.437-7.33,2.48-9.423,2.005c-1.696-0.382-3.542-1.384-5.194-3.122c0.285-1.806,1.8-3.364,7.897-2.529
						C428.027,193.891,427.675,197.991,427.364,199.396z"/>
					<path style="fill:#2A3554;" d="M424.351,187.17c0,0.842,0.434,1.524,0.969,1.524c0.535,0,0.969-0.682,0.969-1.524
						s-0.434-1.524-0.969-1.524C424.785,185.646,424.351,186.328,424.351,187.17z"/>
					<path style="fill:#2A3554;" d="M413.111,187.17c0,0.842,0.434,1.524,0.969,1.524c0.535,0,0.969-0.682,0.969-1.524
						s-0.434-1.524-0.969-1.524C413.545,185.646,413.111,186.328,413.111,187.17z"/>
					<path style="fill:#2A3554;" d="M411.337,181.94c0,0,3.057-1.208,5.411-0.191l-0.236,1.309c0,0-3.454-0.292-5.195,0.413
						C411.161,182.967,411.138,182.458,411.337,181.94z"/>
					<path style="fill:#2A3554;" d="M429.148,181.94c0,0-3.057-1.208-5.411-0.191l0.235,1.309c0,0,3.455-0.292,5.195,0.413
						C429.324,182.967,429.347,182.458,429.148,181.94z"/>
					<g>
						<g>
							<g>
								<path style="fill:#FD896B;" d="M420.021,193.777c0.627,0.077,1.279-0.091,1.38-0.119c0.199-0.054,0.317-0.26,0.263-0.46
									c-0.054-0.2-0.26-0.318-0.46-0.263c-0.352,0.095-1.185,0.211-1.508-0.041c-0.062-0.049-0.145-0.14-0.141-0.369
									c0.024-1.315,0.912-5.623,0.921-5.667c0.042-0.203-0.089-0.401-0.291-0.442c-0.204-0.042-0.401,0.088-0.443,0.291
									c-0.037,0.18-0.911,4.421-0.936,5.805c-0.01,0.521,0.228,0.817,0.43,0.974C419.457,193.657,419.736,193.742,420.021,193.777
									z"/>
							</g>
						</g>
					</g>
					<path style="fill:#FFFFFF;" d="M425.142,196.024c-0.306,1.54-1.323,4.374-4.751,4.374c-3.436,0-4.4-2.589-4.731-4.374H425.142z
						"/>
					<path style="fill:#2A3554;" d="M406.491,186.773h1.698c-0.187-1.704,0.432-3.764,0.943-5.136
						c1.16-3.112-1.309-4.484,0.688-6.043c1.997-1.562,6.966-0.893,10.422-1.005c3.477-0.113,9.066-0.063,10.422,0.251
						c1.36,0.311,0.614,2.568,0.116,4.318c-0.502,1.746,1.667,3.679,2.03,5.488c0.104,0.519,0.083,1.291-0.001,2.127h1.415
						c0.168-2.202,0.193-4.252,0.163-5.913c-0.056-2.91-1.645-5.57-4.177-7.005c-6.858-3.888-14.095-2.439-18.86-0.607
						c-3.307,1.27-5.424,4.517-5.255,8.05C406.175,182.977,406.299,184.886,406.491,186.773z"/>
					<g>
						<g>
							<path style="fill:#FFFFFF;" d="M414.091,192.387c-2.461,0-4.463-2.002-4.463-4.463c0-2.461,2.002-4.463,4.463-4.463
								c2.461,0,4.463,2.002,4.463,4.463C418.554,190.385,416.551,192.387,414.091,192.387z M414.091,184.157
								c-2.077,0-3.767,1.69-3.767,3.767c0,2.077,1.69,3.767,3.767,3.767s3.767-1.69,3.767-3.767
								C417.858,185.847,416.168,184.157,414.091,184.157z"/>
						</g>
						<g>
							<path style="fill:#FFFFFF;" d="M426.289,192.387c-2.461,0-4.463-2.002-4.463-4.463c0-2.461,2.002-4.463,4.463-4.463
								c2.461,0,4.463,2.002,4.463,4.463C430.752,190.385,428.75,192.387,426.289,192.387z M426.289,184.157
								c-2.077,0-3.767,1.69-3.767,3.767c0,2.077,1.69,3.767,3.767,3.767c2.077,0,3.767-1.69,3.767-3.767
								C430.056,185.847,428.367,184.157,426.289,184.157z"/>
						</g>
						<g>
							<path style="fill:#FFFFFF;" d="M410.382,186.486c-0.088,0-0.177-0.033-0.245-0.101l0,0c-0.02-0.02-2.047-1.987-4.707-1.367
								c-0.186,0.044-0.374-0.072-0.418-0.26c-0.044-0.187,0.073-0.374,0.26-0.418c3.042-0.709,5.262,1.458,5.356,1.55
								c0.136,0.136,0.137,0.356,0.001,0.492C410.561,186.452,410.471,186.486,410.382,186.486z"/>
						</g>
						<g>
							<path style="fill:#FFFFFF;" d="M430.08,186.486c-0.114,0-0.225-0.056-0.292-0.158c-0.105-0.161-0.06-0.376,0.101-0.481
								c0.133-0.087,3.291-2.124,5.978-1.682c0.19,0.031,0.318,0.21,0.287,0.4c-0.031,0.189-0.209,0.317-0.4,0.287
								c-2.419-0.398-5.454,1.558-5.485,1.577C430.211,186.468,430.145,186.486,430.08,186.486z"/>
						</g>
						<g>
							<path style="fill:#FFFFFF;" d="M422.072,186.921c-0.008-0.011-0.834-1.129-1.921-1.129c-1.076,0-1.823,1.116-1.83,1.127
								l-0.582-0.381c0.038-0.059,0.956-1.442,2.413-1.442c1.446,0,2.444,1.359,2.485,1.417L422.072,186.921z"/>
						</g>
					</g>
				</g>
			</g>
		</g>
	</g>
	<g>
		<g>
			<g>
				<g>
					<g>
						<path style="fill:#007CE6;" d="M454.801,205.896c0,2.652-2.158,4.811-4.811,4.811c-2.653,0-4.811-2.158-4.811-4.811
							c0-2.652,2.158-4.811,4.811-4.811C452.643,201.086,454.801,203.244,454.801,205.896z M446.689,205.896
							c0,1.82,1.481,3.301,3.301,3.301s3.301-1.481,3.301-3.301c0-1.82-1.481-3.301-3.301-3.301S446.689,204.076,446.689,205.896z"
							/>
					</g>
				</g>
				<g>
					<path style="fill:#61B3FF;" d="M459.695,181.447c0,2.652-2.158,4.811-4.81,4.811c-2.653,0-4.811-2.158-4.811-4.811
						c0-2.652,2.158-4.811,4.811-4.811C457.537,176.637,459.695,178.795,459.695,181.447z M451.583,181.447
						c0,1.82,1.481,3.301,3.301,3.301c1.82,0,3.301-1.481,3.301-3.301c0-1.82-1.481-3.301-3.301-3.301
						C453.064,178.146,451.583,179.627,451.583,181.447z"/>
				</g>
				<g>
					<g>
						<g>
							<path style="fill:#007CE6;" d="M469.517,169.862c0,0.417-0.338,0.755-0.754,0.755h-3.328c-0.417,0-0.754-0.338-0.754-0.755
								c0-0.417,0.338-0.755,0.754-0.755h3.328C469.179,169.108,469.517,169.445,469.517,169.862z"/>
						</g>
						<g>
							<path style="fill:#007CE6;" d="M475.341,169.862c0,0.417-0.338,0.755-0.754,0.755h-3.328c-0.417,0-0.755-0.338-0.755-0.755
								c0-0.417,0.338-0.755,0.755-0.755h3.328C475.003,169.108,475.341,169.445,475.341,169.862z"/>
						</g>
					</g>
					<g>
						<g>
							<path style="fill:#007CE6;" d="M470.765,165.191v2.989c0,0.417-0.338,0.755-0.755,0.755c-0.417,0-0.754-0.338-0.754-0.755
								v-2.989c0-0.417,0.338-0.755,0.754-0.755C470.427,164.437,470.765,164.775,470.765,165.191z"/>
						</g>
						<g>
							<path style="fill:#007CE6;" d="M470.765,171.544v2.989c0,0.417-0.338,0.755-0.755,0.755c-0.417,0-0.754-0.338-0.754-0.755
								v-2.989c0-0.417,0.338-0.755,0.754-0.755C470.427,170.789,470.765,171.127,470.765,171.544z"/>
						</g>
					</g>
				</g>
				<g>
					<g>
						<g>
							<g>
								<path style="fill:#0065D6;" d="M464.091,195.555c0,0.417-0.338,0.755-0.755,0.755h-3.328c-0.417,0-0.754-0.338-0.754-0.755
									s0.338-0.755,0.754-0.755h3.328C463.753,194.801,464.091,195.139,464.091,195.555z"/>
							</g>
							<g>
								<path style="fill:#0065D6;" d="M469.914,195.555c0,0.417-0.338,0.755-0.755,0.755h-3.327c-0.417,0-0.755-0.338-0.755-0.755
									s0.338-0.755,0.755-0.755h3.327C469.576,194.801,469.914,195.139,469.914,195.555z"/>
							</g>
						</g>
						<g>
							<g>
								<path style="fill:#0065D6;" d="M465.339,190.885v2.989c0,0.417-0.338,0.755-0.755,0.755c-0.417,0-0.755-0.338-0.755-0.755
									v-2.989c0-0.417,0.338-0.755,0.755-0.755C465.001,190.13,465.339,190.468,465.339,190.885z"/>
							</g>
							<g>
								<path style="fill:#0065D6;" d="M465.339,197.237v2.989c0,0.417-0.338,0.755-0.755,0.755c-0.417,0-0.755-0.338-0.755-0.755
									v-2.989c0-0.417,0.338-0.755,0.755-0.755C465.001,196.482,465.339,196.82,465.339,197.237z"/>
							</g>
						</g>
					</g>
				</g>
			</g>
		</g>
		<g>
			<g>
				<g>
					<path style="fill:#007CE6;" d="M63.013,171.269c2.653,0,4.811,2.158,4.811,4.811c0,2.652-2.158,4.81-4.811,4.81
						c-2.653,0-4.811-2.158-4.811-4.81C58.203,173.427,60.361,171.269,63.013,171.269z M63.013,172.778
						c-1.82,0-3.301,1.481-3.301,3.301c0,1.82,1.481,3.301,3.301,3.301s3.301-1.481,3.301-3.301
						C66.315,174.259,64.834,172.778,63.013,172.778z"/>
				</g>
				<g>
					<path style="fill:#61B3FF;" d="M58.119,146.82c2.653,0,4.811,2.158,4.811,4.811c0,2.652-2.158,4.811-4.811,4.811
						c-2.653,0-4.81-2.158-4.81-4.811C53.309,148.978,55.467,146.82,58.119,146.82z M58.119,148.329
						c-1.82,0-3.301,1.481-3.301,3.301c0,1.82,1.481,3.301,3.301,3.301c1.821,0,3.302-1.481,3.302-3.301
						C61.421,149.81,59.94,148.329,58.119,148.329z"/>
				</g>
				<g>
					<g>
						<g>
							<path style="fill:#007CE6;" d="M43.486,140.045c0,0.417,0.338,0.755,0.755,0.755h3.328c0.417,0,0.755-0.338,0.755-0.755
								c0-0.417-0.338-0.755-0.755-0.755h-3.328C43.824,139.291,43.486,139.629,43.486,140.045z"/>
						</g>
						<g>
							<path style="fill:#007CE6;" d="M37.663,140.045c0,0.417,0.338,0.755,0.755,0.755h3.328c0.417,0,0.755-0.338,0.755-0.755
								c0-0.417-0.338-0.755-0.755-0.755h-3.328C38.001,139.291,37.663,139.629,37.663,140.045z"/>
						</g>
					</g>
					<g>
						<g>
							<path style="fill:#007CE6;" d="M42.239,135.374v2.989c0,0.417,0.338,0.755,0.755,0.755c0.417,0,0.755-0.338,0.755-0.755
								v-2.989c0-0.417-0.338-0.755-0.755-0.755C42.576,134.62,42.239,134.958,42.239,135.374z"/>
						</g>
						<g>
							<path style="fill:#007CE6;" d="M42.239,141.727v2.989c0,0.417,0.338,0.755,0.755,0.755c0.417,0,0.755-0.338,0.755-0.755
								v-2.989c0-0.417-0.338-0.755-0.755-0.755C42.576,140.972,42.239,141.31,42.239,141.727z"/>
						</g>
					</g>
				</g>
				<g>
					<g>
						<g>
							<g>
								<path style="fill:#0065D6;" d="M48.913,165.739c0,0.417,0.338,0.755,0.755,0.755h3.328c0.417,0,0.754-0.338,0.754-0.755
									s-0.338-0.755-0.754-0.755h-3.328C49.251,164.984,48.913,165.322,48.913,165.739z"/>
							</g>
							<g>
								<path style="fill:#0065D6;" d="M43.089,165.739c0,0.417,0.338,0.755,0.755,0.755h3.327c0.417,0,0.755-0.338,0.755-0.755
									s-0.338-0.755-0.755-0.755h-3.327C43.427,164.984,43.089,165.322,43.089,165.739z"/>
							</g>
						</g>
						<g>
							<g>
								<path style="fill:#0065D6;" d="M47.665,161.068v2.989c0,0.417,0.338,0.755,0.755,0.755c0.417,0,0.754-0.338,0.754-0.755
									v-2.989c0-0.417-0.338-0.755-0.754-0.755C48.003,160.313,47.665,160.651,47.665,161.068z"/>
							</g>
							<g>
								<path style="fill:#0065D6;" d="M47.665,167.42v2.989c0,0.417,0.338,0.754,0.755,0.754c0.417,0,0.754-0.338,0.754-0.754
									v-2.989c0-0.417-0.338-0.755-0.754-0.755C48.003,166.666,47.665,167.004,47.665,167.42z"/>
							</g>
						</g>
					</g>
				</g>
			</g>
		</g>
	</g>
	<g>
		<g>
			<g>
				<g>
					<path style="fill:#0065D6;" d="M188.144,397.931h-33.062c-2.535,0-4.591-2.055-4.591-4.591v-33.062
						c0-2.535,2.055-4.591,4.591-4.591h33.062c2.535,0,4.591,2.055,4.591,4.591v33.062
						C192.735,395.876,190.68,397.931,188.144,397.931z"/>
				</g>
			</g>
			<g>
				<g>
					<path style="fill:#007CE6;" d="M185.271,397.931h-33.062c-2.535,0-4.591-2.055-4.591-4.591v-33.062
						c0-2.535,2.055-4.591,4.591-4.591h33.062c2.535,0,4.591,2.055,4.591,4.591v33.062
						C189.862,395.876,187.807,397.931,185.271,397.931z"/>
				</g>
			</g>
			<path style="fill:#FFFFFF;" d="M169.373,362.803c-5.395-0.36-9.881,3.913-9.881,9.225c0,1.721,0.472,3.333,1.294,4.716
				c1.224,2.062,2.485,4.101,3.648,6.198l4.381,7.896l6.682-12.054c0.392-0.704,0.816-1.389,1.224-2.084
				c0.844-1.431,1.31-3.11,1.265-4.897C177.874,367.067,174.098,363.116,169.373,362.803z M168.739,374.826
				c-2.154,0-3.903-1.746-3.903-3.903c0-2.157,1.749-3.903,3.903-3.903c2.157,0,3.903,1.746,3.903,3.903
				C172.642,373.08,170.896,374.826,168.739,374.826z"/>
		</g>
		<g>
			<g>
				<g>
					<path style="fill:#007CE6;" d="M165.586,440.175h-33.062c-2.535,0-4.59-2.055-4.59-4.591v-33.062
						c0-2.535,2.055-4.591,4.59-4.591h33.062c2.535,0,4.591,2.055,4.591,4.591v33.062
						C170.177,438.119,168.121,440.175,165.586,440.175z"/>
				</g>
			</g>
			<g>
				<g>
					<path style="fill:#009EF3;" d="M162.713,440.175h-33.062c-2.535,0-4.59-2.055-4.59-4.591v-33.062
						c0-2.535,2.055-4.591,4.59-4.591h33.062c2.535,0,4.591,2.055,4.591,4.591v33.062
						C167.304,438.119,165.248,440.175,162.713,440.175z"/>
				</g>
			</g>
			<g>
				<g>
					<path style="fill:#FFFFFF;" d="M146.18,405.178c-7.651,0-13.875,6.224-13.875,13.875c0,7.651,6.225,13.875,13.875,13.875
						c7.651,0,13.875-6.225,13.875-13.875C160.056,411.402,153.831,405.178,146.18,405.178z M146.739,424.177v-4.862h6.272
						c-0.039,1.718-0.288,3.353-0.741,4.862H146.739z M150.669,429.715c1.019-1.293,1.83-2.78,2.411-4.422h4.226
						c-1.786,3.177-4.783,5.411-8.308,6.206C149.594,430.966,150.154,430.368,150.669,429.715z M151.891,425.293
						c-0.523,1.365-1.219,2.608-2.071,3.697c-1.33,1.699-2.66,2.562-3.081,2.81l0-6.507H151.891z M146.739,412.222v-5.915
						c0.165,0.007,0.331,0.018,0.496,0.031c0.694,0.588,2.87,2.605,4.35,5.884H146.739z M152.805,412.222
						c-0.497-1.195-1.126-2.341-1.87-3.409c-0.539-0.773-1.128-1.499-1.756-2.163c3.191,0.773,5.994,2.78,7.771,5.572H152.805z
						 M146.739,418.199v-4.861h5.302c0.574,1.566,0.898,3.201,0.963,4.861H146.739z M154.121,418.199
						c-0.061-1.651-0.362-3.285-0.895-4.861h4.361c0.766,1.523,1.212,3.158,1.325,4.861H154.121z M158.936,419.315
						c-0.034,1.69-0.394,3.324-1.071,4.862h-4.433c0.425-1.52,0.658-3.154,0.695-4.862H158.936z M139.058,424.177h-4.562
						c-0.677-1.538-1.037-3.172-1.071-4.862h4.939C138.4,421.023,138.634,422.657,139.058,424.177z M140.902,412.222
						c0.43-0.958,0.951-1.88,1.552-2.746c1.166-1.681,2.334-2.745,2.815-3.15c0.117-0.008,0.235-0.015,0.353-0.02v5.915H140.902z
						 M145.623,413.338v4.861h-6.136c0.065-1.655,0.389-3.29,0.962-4.861H145.623z M135.411,412.222
						c1.812-2.846,4.674-4.867,7.936-5.61c-0.641,0.674-1.243,1.413-1.792,2.201c-0.744,1.068-1.372,2.214-1.869,3.409H135.411z
						 M145.623,419.315v4.862h-5.403c-0.452-1.503-0.701-3.138-0.74-4.862H145.623z M133.45,418.199
						c0.113-1.702,0.558-3.336,1.326-4.861h4.49c-0.534,1.576-0.835,3.21-0.895,4.861H133.45z M139.41,425.293
						c0.582,1.641,1.393,3.129,2.411,4.422c0.527,0.668,1.101,1.279,1.711,1.82c-3.554-0.757-6.683-3.055-8.478-6.242H139.41z
						 M145.623,425.293v6.428c-0.844-0.527-3.48-2.429-5.021-6.428H145.623z"/>
				</g>
			</g>
		</g>
		<g>
			<g>
				<g>
					<path style="fill:#009EF3;" d="M215.574,440.175h-33.062c-2.535,0-4.591-2.055-4.591-4.591v-33.062
						c0-2.535,2.055-4.591,4.591-4.591h33.062c2.535,0,4.591,2.055,4.591,4.591v33.062
						C220.164,438.119,218.109,440.175,215.574,440.175z"/>
				</g>
			</g>
			<g>
				<g>
					<path style="fill:#61B3FF;" d="M212.7,440.175h-33.062c-2.535,0-4.591-2.055-4.591-4.591v-33.062
						c0-2.535,2.055-4.591,4.591-4.591H212.7c2.535,0,4.591,2.055,4.591,4.591v33.062
						C217.291,438.119,215.236,440.175,212.7,440.175z"/>
				</g>
			</g>
			<g>
				<polygon style="fill:#FFFFFF;" points="209.501,416.884 208.831,416.302 197.196,406.172 185.561,416.302 184.774,416.989 
					183.006,418.526 183.006,431.499 193.454,431.499 193.454,423.064 200.774,423.064 200.774,431.499 211.221,431.499 
					211.221,418.382 				"/>
				<polygon style="fill:#FFFFFF;" points="197.196,401.864 179.801,417.009 182.479,416.999 183.006,416.536 183.276,416.302 
					197.196,404.184 211.116,416.302 211.221,416.394 211.776,416.874 214.426,416.864 				"/>
			</g>
		</g>
	</g>
	<g>
		<g>
			<g>
				<path style="fill:#007CE6;" d="M348.153,400.764c0,0-0.853,0.834-2.602,0.963c-0.528,0.043-1.135,0.018-1.834-0.122
					c-0.743-0.135-1.583-0.399-2.516-0.841c0,0,0.405-17.193-6.547-29.036c-6.952-11.843-16.156-28.201-8.793-36.589
					c7.363-8.388,19.224,3.27,23.108,22.906C352.859,377.681,348.153,400.764,348.153,400.764z"/>
			</g>
			<g>
				<path style="fill:#004BCA;" d="M345.551,401.728c-0.528,0.043-1.135,0.018-1.834-0.122
					c2.233-30.521-11.622-54.096-11.763-54.335c-0.264-0.436-0.123-1,0.313-1.264c0.436-0.258,1-0.116,1.264,0.319
					C333.678,346.565,347.828,370.606,345.551,401.728z"/>
			</g>
		</g>
		<g>
			<g>
				<path style="fill:#007CE6;" d="M371.997,373.017c-16.267,26.299-15.143,32.38-15.143,32.38l-2.136-0.381l-1.816-0.319
					l-2.59-0.46c-1.442-11.665,7.517-60.967,23.489-60.967C390.062,343.27,377.538,364.065,371.997,373.017z"/>
			</g>
			<g>
				<path style="fill:#004BCA;" d="M371.384,357.885c-0.154,0.258-13.775,24.557-16.666,47.131l-1.816-0.319
					c2.97-22.937,16.727-47.456,16.874-47.72c0.251-0.442,0.816-0.595,1.258-0.344C371.476,356.886,371.629,357.444,371.384,357.885
					z"/>
			</g>
		</g>
		<g>
			<g>
				<path style="fill:#007CE6;" d="M336.249,404.391l0.068-0.018C336.304,404.421,336.249,404.391,336.249,404.391z"/>
				<path style="fill:#007CE6;" d="M341.053,403.096l-1.872,0.503l-1.792,0.485l-1.074,0.288c0.068-0.233-0.749-2.246-12.192-17.537
					c-4.725-6.32-17.328-23.317-5.774-26.17C328.947,358.052,341.36,394.291,341.053,403.096z"/>
			</g>
			<g>
				<path style="fill:#004BCA;" d="M339.182,403.599l-1.792,0.485c-3.301-14.733-16.696-32.815-16.843-33.012
					c-0.301-0.405-0.215-0.981,0.19-1.288c0.405-0.301,0.982-0.221,1.289,0.19C322.615,370.771,335.783,388.529,339.182,403.599z"/>
			</g>
		</g>
		<path style="fill:#61B3FF;" d="M363.716,442.002h-36.382v-39.998c0-2.249,1.823-4.073,4.072-4.073h28.237
			c2.249,0,4.072,1.823,4.072,4.072V442.002z"/>
	</g>
	<g>
		<g>
			<g>
				<polygon style="fill:#FBA691;" points="114.49,422.064 114.492,431.173 107.971,431.041 107.544,421.387 				"/>
				<g>
					<g>
						<g>
							<path style="fill:#007CE6;" d="M112.721,430.348c0,0,1.485-2.09,2.702-2.029c1.217,0.061,10.759,7.307,13.986,7.851
								c3.226,0.544,2.655,2.923,2.093,4.145c-0.562,1.222-25.635,0.115-25.635,0.115s-0.853-7.437-0.086-9.734
								C106.548,428.398,110.221,430.944,112.721,430.348z"/>
							<g>
								<g>
									<path style="fill:#FEFDFF;" d="M118.02,435.435c-0.113,0.036-0.24,0.028-0.353-0.032c-0.219-0.118-0.3-0.391-0.182-0.61
										c0.039-0.073,0.983-1.799,2.288-2.493c1.737-0.927,3.129,0.036,3.187,0.078c0.203,0.143,0.251,0.424,0.107,0.627
										c-0.143,0.203-0.424,0.251-0.628,0.107c-0.038-0.026-1.006-0.674-2.244-0.017c-1.064,0.566-1.911,2.112-1.919,2.127
										C118.22,435.327,118.126,435.4,118.02,435.435z"/>
								</g>
								<g>
									<path style="fill:#FEFDFF;" d="M116.65,434.198c-0.113,0.036-0.24,0.029-0.353-0.032c-0.219-0.118-0.3-0.391-0.182-0.61
										c0.04-0.073,0.983-1.799,2.288-2.494c1.738-0.927,3.129,0.036,3.188,0.078c0.203,0.143,0.25,0.424,0.107,0.627
										c-0.143,0.203-0.425,0.251-0.627,0.107c-0.038-0.026-1.007-0.675-2.244-0.017c-1.068,0.569-1.911,2.111-1.919,2.127
										C116.85,434.09,116.756,434.163,116.65,434.198z"/>
								</g>
								<g>
									<path style="fill:#FEFDFF;" d="M119.861,436.423c-0.113,0.037-0.24,0.029-0.353-0.032c-0.219-0.118-0.3-0.391-0.182-0.61
										c0.04-0.073,0.983-1.799,2.288-2.494c1.738-0.927,3.129,0.036,3.188,0.077c0.203,0.144,0.251,0.425,0.107,0.627
										c-0.143,0.203-0.425,0.251-0.628,0.107c-0.038-0.026-1.008-0.674-2.244-0.017c-1.069,0.569-1.911,2.112-1.919,2.127
										C120.061,436.315,119.967,436.388,119.861,436.423z"/>
								</g>
							</g>
						</g>
					</g>
				</g>
			</g>
			<path style="fill:#2A365C;" d="M115.823,423.724l-6.637-0.565l-0.791-0.062l-1.612-0.138c0,0-2.188-49.288-2.953-62.415
				c-0.666-11.405-4.842-37.003-7.58-52.929c-0.776-4.521-1.437-8.263-1.873-10.68c-0.331-1.901-0.529-2.982-0.529-2.982
				l22.374-2.941c0,0,0.038,0.619,0.098,1.733c0.129,2.28,0.376,6.649,0.667,12.14c0.813,14.946,2.03,38.204,2.392,50.047
				C120.302,385.425,115.823,423.724,115.823,423.724z"/>
			<path style="fill:#16162F;" d="M116.987,304.885l-20.737,2.73c-0.776-4.521-1.437-8.263-1.873-10.68l21.943-4.19
				C116.448,295.026,116.696,299.394,116.987,304.885z"/>
			<g>
				<path style="fill:#16162F;" d="M109.186,423.159l-0.791-0.062c0.202-15.25,0.491-53.334-1.299-69.461
					c-2.247-20.329-8.076-49.906-8.135-50.205l0.769-0.293c0.06,0.299,5.898,29.928,8.147,50.307
					C109.678,369.675,109.393,407.941,109.186,423.159z"/>
			</g>
		</g>
		<g>
			<g>
				<polygon style="fill:#FBA691;" points="62.032,419.141 59.376,427.855 53.178,425.826 55.585,416.468 				"/>
				<g>
					<g>
						<g>
							<path style="fill:#007CE6;" d="M57.616,426.565c0,0,2.122-1.438,3.241-0.955c1.119,0.483,7.522,10.611,10.353,12.249
								c2.832,1.639,1.464,3.667,0.51,4.615c-0.954,0.948-24.054-8.865-24.054-8.865s1.804-7.265,3.326-9.149
								C52.516,422.578,55.066,426.248,57.616,426.565z"/>
							<g>
								<g>
									<path style="fill:#FEFDFF;" d="M60.799,433.185c-0.119-0.005-0.235-0.057-0.319-0.154
										c-0.163-0.187-0.144-0.471,0.043-0.635c0.063-0.055,1.55-1.341,3.016-1.535c1.951-0.26,2.918,1.129,2.958,1.188
										c0.14,0.205,0.086,0.485-0.119,0.625c-0.205,0.14-0.485,0.086-0.625-0.12c-0.026-0.038-0.707-0.984-2.096-0.801
										c-1.195,0.158-2.529,1.309-2.542,1.321C61.024,433.154,60.91,433.19,60.799,433.185z"/>
								</g>
								<g>
									<path style="fill:#FEFDFF;" d="M59.949,431.547c-0.118-0.005-0.235-0.057-0.319-0.154
										c-0.164-0.187-0.144-0.472,0.043-0.635c0.063-0.055,1.55-1.341,3.016-1.535c1.953-0.26,2.918,1.129,2.959,1.188
										c0.14,0.205,0.086,0.485-0.12,0.625c-0.205,0.14-0.486,0.087-0.625-0.12c-0.027-0.038-0.707-0.985-2.096-0.801
										c-1.2,0.159-2.529,1.309-2.542,1.321C60.175,431.515,60.061,431.552,59.949,431.547z"/>
								</g>
								<g>
									<path style="fill:#FEFDFF;" d="M62.178,434.754c-0.119-0.005-0.235-0.057-0.319-0.153
										c-0.163-0.187-0.144-0.472,0.043-0.635c0.063-0.055,1.55-1.341,3.016-1.535c1.953-0.26,2.918,1.129,2.959,1.188
										c0.14,0.205,0.086,0.485-0.119,0.625c-0.205,0.139-0.486,0.086-0.625-0.12c-0.027-0.038-0.708-0.984-2.096-0.801
										c-1.2,0.159-2.529,1.309-2.542,1.321C62.403,434.723,62.289,434.76,62.178,434.754z"/>
								</g>
							</g>
						</g>
					</g>
				</g>
			</g>
			<path style="fill:#2A365C;" d="M62.699,421.047l-6.238-2.335l-0.745-0.273l-1.515-0.568c0,0,11.194-48.05,14-60.897
				c2.436-11.161,5.323-36.937,6.984-53.011c0.473-4.562,0.846-8.344,1.078-10.789c0.194-1.92,0.296-3.014,0.296-3.014l22.337,3.206
				c0,0-0.13,0.606-0.374,1.695c-0.492,2.23-1.432,6.504-2.634,11.869c-3.25,14.611-8.355,37.335-11.202,48.835
				C77.347,385.378,62.699,421.047,62.699,421.047z"/>
			<path style="fill:#16162F;" d="M95.889,306.931l-20.704-2.967c0.473-4.562,0.846-8.344,1.078-10.789l22.259,1.887
				C98.031,297.292,97.091,301.565,95.889,306.931z"/>
			<g>
				<path style="fill:#16162F;" d="M56.46,418.712l-0.745-0.273c4.31-14.629,14.865-51.223,17.494-67.235
					c3.322-20.181,5.691-50.234,5.714-50.538l0.82-0.074c-0.023,0.304-2.396,30.409-5.731,50.639
					C71.368,367.345,60.766,404.114,56.46,418.712z"/>
			</g>
		</g>
		<path style="fill:#009EF3;" d="M112.491,239.976c6.129,9.979,23.533,19.254,23.533,19.254c6.611-1.079,10.853-2.849,15.079-4.923
			c-1.082-2.98-1.47-5.974-1.965-9.862c-6.161,1.404-11.454,2.059-11.454,2.059c-12.554-6.557-26.203-37.275-26.203-37.275
			C106.919,217.586,112.491,239.976,112.491,239.976z"/>
		<g>
			<path style="fill:#2A3554;" d="M72.759,222.329c5.112,4.991,11.469,3.162,19.627-0.511c8.161-3.674,2.676,4.051,10.431,5.778
				c7.755,1.727,7.754-17.67,8.743-27.312c0.62-6.047,3.385-13.563,3.53-16.631l0.002-0.042c0.065-0.507,0.112-1.014,0.14-1.515
				c0.409-7.356-3.492-21.012-19.551-19.63c0,0-13.313,0.884-15.433,13.753c0,0-0.91,5.94-1.532,10.243
				c-1.761,12.185-5.973,5.591-5.233,20.577C73.727,211.996,66.781,216.492,72.759,222.329z"/>
			<g>
				<g>
					<path style="fill:#61B3FF;" d="M118.03,297.835c-13.475,8.982-43.172-1.536-43.172-1.536c-3.195-4.305,1.96-13.556,3.868-24.58
						c1.606-9.282,0.864-22.011-0.414-31.459c-0.237-1.767-0.495-3.422-0.76-4.919c-1.674-9.479-1.144-25.153-1.144-25.153
						c1.675-0.763,4.362-1.765,7.085-2.724c1.694-0.596,3.402-1.176,4.891-1.676c2.644-0.887,4.611-1.511,4.611-1.511l10.665,2.155
						l2.087,0.748l3.442,1.232l2.291,0.818c0,0,1.148,10.685,2.415,17.199c0.35,1.784,0.707,3.259,1.052,4.113
						c1.609,3.977,1.075,5.84-1.052,10.902c-0.502,1.2-0.858,2.482-1.079,3.884c-0.058,0.349-0.105,0.705-0.145,1.07
						c-0.481,4.339,0.118,9.779,1.186,17.156c1.247,8.607,4.496,25.253,5.614,30.91C119.73,295.78,119.145,297.092,118.03,297.835z"
						/>
					<g>
						<g>
							<path style="fill:#009EF3;" d="M112.816,245.33c-0.058,0.349-0.105,0.705-0.145,1.07c-5.561,4.273-15.07,10.012-25.583,9.515
								c-0.207-0.01-0.369-0.187-0.359-0.395c0.01-0.207,0.187-0.369,0.395-0.359C97.806,255.666,107.456,249.57,112.816,245.33z"/>
						</g>
						<g>
							<path style="fill:#009EF3;" d="M102.816,227.596c-5.341-0.253-10-6.163-10.201-6.422c-0.128-0.164-0.098-0.401,0.066-0.529
								c0.164-0.128,0.401-0.099,0.529,0.066c0.049,0.062,4.928,6.252,10.102,6.138c0.207-0.005,0.381,0.161,0.386,0.369
								c0.005,0.208-0.16,0.381-0.369,0.385C103.158,227.606,102.986,227.604,102.816,227.596z"/>
						</g>
						<g>
							<path style="fill:#009EF3;" d="M87.776,281.033c-0.189-0.009-0.345-0.158-0.358-0.352c-0.014-0.208,0.143-0.388,0.351-0.402
								c13.872-0.935,20.717-24.545,20.784-24.784c0.057-0.201,0.265-0.317,0.466-0.26c0.201,0.057,0.317,0.265,0.26,0.466
								c-0.282,0.994-7.063,24.361-21.46,25.331C87.805,281.034,87.79,281.034,87.776,281.033z"/>
						</g>
						<g>
							<path style="fill:#009EF3;" d="M93.612,274.067c-0.126-0.006-0.247-0.075-0.313-0.194c-0.101-0.182-0.035-0.412,0.147-0.513
								c7.552-4.177,8.959-10.794,8.972-10.86c0.041-0.204,0.238-0.339,0.444-0.296c0.204,0.041,0.337,0.239,0.296,0.443
								c-0.056,0.285-1.474,7.019-9.347,11.373C93.748,274.055,93.679,274.07,93.612,274.067z"/>
						</g>
					</g>
				</g>
			</g>
			<g>
				<g>
					<g>
						<path style="fill:#FD896B;" d="M109.63,184.246c0,0,2.416-2.78,3.998-0.312c1.582,2.468-1.148,9.408-5.217,7.49
							L109.63,184.246z"/>
						<path style="fill:#FFFFFF;" d="M110.291,191.021c-0.02,0.419,0.304,0.774,0.722,0.794s0.774-0.304,0.794-0.722
							c0.02-0.419-0.303-0.774-0.722-0.794C110.667,190.279,110.311,190.603,110.291,191.021z"/>
						<g>
							<path style="fill:#D65C48;" d="M109.421,189.287c0.153,0.007,0.299-0.082,0.349-0.228c0.746-2.147,3.162-2.917,3.187-2.925
								c0.184-0.057,0.284-0.245,0.223-0.42c-0.06-0.175-0.258-0.271-0.442-0.215c-0.113,0.035-2.775,0.876-3.634,3.348
								c-0.061,0.175,0.039,0.364,0.224,0.422C109.357,189.28,109.389,189.286,109.421,189.287z"/>
						</g>
						<g>
							<path style="fill:#D65C48;" d="M111.869,188.304c0.065,0.003,0.132-0.011,0.192-0.044c0.167-0.092,0.224-0.296,0.127-0.456
								c-0.016-0.026-0.408-0.655-1.269-1.07c-0.172-0.084-0.384-0.018-0.471,0.146c-0.087,0.164-0.017,0.365,0.156,0.448
								c0.666,0.321,0.974,0.804,0.977,0.809C111.644,188.239,111.754,188.298,111.869,188.304z"/>
						</g>
					</g>
					<path style="fill:#FDA893;" d="M91.36,198.168l-0.368,7.779c0,0,3.834,4.167,6.958,4.585c3.121,0.422,4.38-3.226,4.38-3.226
						l0.381-8.053L91.36,198.168z"/>
					<path style="fill:#FD896B;" d="M91.32,199.016l-0.163,3.452c1.995,2.436,5.693,3.441,11.264,2.885l0.25-5.252L91.32,199.016z"
						/>
					<path style="fill:#FDA893;" d="M110.844,187.6c-0.14,0.831-0.298,1.675-0.488,2.515c-1.26,5.579-5.107,11.488-9.649,12.296
						c-9.808,1.743-13.477-6.069-14.762-11.765c-0.142-0.633,0.214-1.333,0.113-2.079c-0.239-1.767-0.852-3.791-0.92-5.762
						c-0.046-1.366-0.062-2.711-0.061-3.926c0.005-3.427,2.133-6.475,5.287-7.556c4.545-1.563,11.385-2.647,17.623,1.419
						c2.304,1.502,3.669,4.146,3.59,6.965C111.513,181.859,111.327,184.67,110.844,187.6z"/>
					<g>
						<path style="fill:#FD896B;" d="M98.796,191.393c-0.181-0.009-0.334-0.146-0.356-0.332c-0.025-0.207,0.123-0.395,0.33-0.42
							l1.305-0.156l-1.559-4.834c-0.064-0.198,0.045-0.411,0.243-0.475c0.198-0.063,0.411,0.045,0.475,0.243l1.84,5.706
							l-2.214,0.265C98.838,191.393,98.817,191.394,98.796,191.393z"/>
					</g>
					<path style="fill:#2A3554;" d="M107.556,177.945c3.711,1.91,2.293,6.359,3.468,8.68c0.076,0.151,0.161,0.181,0.255,0.11
						c0.504-2.986,0.696-5.851,0.758-8.046c0.079-2.874-1.364-5.57-3.795-7.106c-6.582-4.156-13.791-3.062-18.579-1.476
						c-3.322,1.096-5.562,4.201-5.561,7.694c0.002,1.239,0.02,2.611,0.071,4.003c0.612,0.404,2.142,0.648,2.158,1.663
						c0.044,2.684,0.088,4.522,0.655,4.389c0.955-0.227,1.694-3.441,0.715-5.587c0,0,0.933-1.37,4.532-2.565
						c4.616-1.532,9.102-3.912,9.102-3.912s1.77-0.955,2.484-2.054C103.82,173.738,104.729,176.49,107.556,177.945z"/>
					<path style="fill:#2A3554;" d="M103.509,185.318c-0.039,0.83,0.357,1.524,0.885,1.549c0.528,0.025,0.988-0.628,1.027-1.458
						c0.039-0.83-0.357-1.524-0.885-1.549C104.008,183.834,103.548,184.487,103.509,185.318z"/>
					<path style="fill:#2A3554;" d="M93.178,184.829c-0.039,0.83,0.357,1.524,0.885,1.549c0.528,0.025,0.988-0.628,1.027-1.458
						c0.039-0.83-0.357-1.524-0.885-1.549C93.677,183.346,93.217,183.998,93.178,184.829z"/>
					<path style="fill:#2A3554;" d="M107.225,181.542c-0.761-0.186-2.304-0.507-3.962-0.527c-0.436-0.005-0.801,0.307-0.757,0.656
						l0.001,0.009c0.035,0.279,0.323,0.479,0.672,0.469c1.132-0.032,4.082,0.126,5.436,0.6c0.048-0.197-0.075-0.415-0.261-0.609
						C108.075,181.846,107.67,181.65,107.225,181.542z"/>
					<path style="fill:#2A3554;" d="M91.849,180.995c0.774-0.124,2.337-0.319,3.991-0.205c0.435,0.03,0.773,0.37,0.702,0.715
						l-0.002,0.009c-0.057,0.275-0.36,0.452-0.707,0.414c-1.126-0.123-4.079-0.204-5.467,0.159c-0.032-0.2,0.109-0.407,0.309-0.586
						C90.978,181.23,91.397,181.067,91.849,180.995z"/>
					<path style="fill:#FFFFFF;" d="M102.869,193.835c-0.342,1.308-1.385,3.695-4.514,3.547c-3.136-0.148-3.91-2.412-4.14-3.957
						L102.869,193.835z"/>
					<g>
						<path style="fill:#FD896B;" d="M98.292,199.656c0.903,0.043,1.723-0.406,1.757-0.425c0.179-0.099,0.243-0.324,0.144-0.503
							c-0.099-0.178-0.323-0.243-0.502-0.145l0,0c-0.007,0.004-0.676,0.366-1.364,0.333c-0.745-0.035-1.394-0.461-1.4-0.466
							c-0.17-0.113-0.4-0.068-0.513,0.102c-0.114,0.169-0.069,0.399,0.101,0.512C96.548,199.088,97.336,199.611,98.292,199.656z"/>
					</g>
				</g>
				<g>
					<path style="fill:#FDA893;" d="M86.257,183.116c0,0-2.498-3.342-4.172-1.097c-1.674,2.245,0.213,9.199,4.121,7.708
						L86.257,183.116z"/>
					<path style="fill:#FFFFFF;" d="M83.792,189.767c-0.02,0.419,0.304,0.774,0.722,0.794c0.419,0.02,0.774-0.304,0.794-0.722
						c0.02-0.419-0.304-0.774-0.722-0.794C84.167,189.025,83.812,189.348,83.792,189.767z"/>
					<g>
						<path style="fill:#FD896B;" d="M85.47,187.571c-0.141-0.007-0.267-0.106-0.3-0.251c-0.493-2.143-2.643-3.104-2.665-3.113
							c-0.164-0.072-0.239-0.262-0.168-0.426c0.071-0.164,0.262-0.239,0.426-0.168c0.101,0.044,2.47,1.095,3.039,3.562
							c0.04,0.174-0.069,0.348-0.243,0.389C85.529,187.57,85.499,187.573,85.47,187.571z"/>
					</g>
					<g>
						<g>
							<g>
								<path style="fill:#FD896B;" d="M83.309,186.401c-0.06-0.003-0.12-0.022-0.172-0.06c-0.146-0.104-0.179-0.306-0.076-0.452
									c0.017-0.024,0.433-0.597,1.261-0.921c0.166-0.066,0.354,0.017,0.42,0.183c0.065,0.167-0.017,0.355-0.184,0.42
									c-0.64,0.251-0.966,0.69-0.969,0.694C83.522,186.359,83.416,186.406,83.309,186.401z"/>
							</g>
						</g>
					</g>
				</g>
			</g>
		</g>
		<g>
			<path style="fill:#61B3FF;" d="M136.29,256.994l8.974,7.584c1.135,0.958,2.832,0.815,3.789-0.32l19.209-22.732l7.945-9.4
				l-13.081-11.056l-4.706,5.569l-22.448,26.566C135.013,254.338,135.155,256.034,136.29,256.994z"/>
			<path style="fill:#009EF3;" d="M158.421,226.639c1.675,4.532,4.653,10.27,9.842,14.887l7.945-9.4l-13.081-11.056L158.421,226.639
				z"/>
			<path style="fill:#2A3554;" d="M105.819,300.413l1.718,1.452c1.768,1.494,4.412,1.272,5.906-0.496l31.395-37.152l-8.121-6.862
				l-31.395,37.153C103.829,296.275,104.051,298.919,105.819,300.413z"/>
			<g>
				<path style="fill:#2A3554;" d="M161.043,162.176c-17.273,20.23-14.877,50.635,5.356,67.91
					c20.232,17.274,50.637,14.875,67.91-5.356c17.274-20.232,14.878-50.637-5.354-67.912
					C208.722,139.543,178.317,141.943,161.043,162.176z M166.661,166.972c14.602-17.102,40.395-19.138,57.497-4.536
					c17.103,14.602,19.135,40.395,4.533,57.497c-14.6,17.1-40.393,19.136-57.495,4.534
					C154.093,209.865,152.06,184.073,166.661,166.972z"/>
				<path style="opacity:0.5;fill:#FFFFFF;" d="M158.819,181.073c-6.826,21.424,5.05,44.41,26.477,51.237
					c1.838,0.585,3.688,1.034,5.54,1.35c4.795,0.819,9.592,0.753,14.198-0.101c4.802-0.89,9.395-2.633,13.553-5.118
					c6.539-3.9,12.011-9.627,15.564-16.738c0.931-1.863,1.73-3.824,2.382-5.87c6.827-21.427-5.049-44.413-26.476-51.24
					c-2.046-0.652-4.108-1.134-6.169-1.453c-7.856-1.215-15.696-0.064-22.658,3.015c-4.433,1.955-8.511,4.692-12.013,8.095
					c-3.36,3.263-6.189,7.138-8.295,11.523C160.109,177.466,159.405,179.235,158.819,181.073z"/>
				<path style="opacity:0.5;fill:#FFFFFF;" d="M181.231,156.155l37.356,72.285c6.539-3.9,12.011-9.627,15.564-16.738
					l-30.262-58.562C196.033,151.925,188.192,153.076,181.231,156.155z"/>
				<path style="opacity:0.5;fill:#FFFFFF;" d="M160.923,175.773l29.913,57.886c4.795,0.819,9.592,0.753,14.198-0.101
					l-35.816-69.308C165.858,167.514,163.029,171.388,160.923,175.773z"/>
			</g>
		</g>
		<g>
			<path style="fill:#FDA893;" d="M115.536,276.353l1.639,0.078c1.465,0.069,2.619-0.74,3.339-2.018
				c0.318-0.565,0.763-1.605,1.053-1.956c0.815-0.986,2.986-2.602,3.772-2.617c0.786-0.015,0.572,1.435-0.011,2.048
				c-0.584,0.613-1.495,1.384-2.006,2.265c-0.511,0.881,3.703,2.915,5.428,3.424c1.726,0.508,4.836-0.283,5.065,1.178
				c0.23,1.462-2.08,1.566-2.08,1.566s0.612,1.336-1.348,2.326c0,0,0.28,1.294-0.987,1.916c0,0,0.064,1.625-1.389,1.983
				c-1.453,0.358-5.985,1.443-14.505-4.294L115.536,276.353z"/>
			<g>
				<g>
					<g>
						<g>
							<path style="fill:#009EF3;" d="M86.344,237.869c1.056,10.637,5.626,18.63,5.626,18.63s4.382,5.402,11.764,11.135
								c5.127,3.982,13.441,8.796,13.441,8.796c-1.561,1.842-2.778,5.571-2.263,6.728c-16.067-4.41-31.648-18.857-31.648-18.857
								c-11.993-15.316-10.193-48.149-10.193-48.149s0.643-4.852,3.336-5.965c0,0,5.221,2.232,6.773,8.555
								C84.732,225.066,86.344,237.869,86.344,237.869z"/>
						</g>
					</g>
				</g>
			</g>
		</g>
		<path style="fill:#FDA893;" d="M167.351,243.578c0,0-3.875-1.58-5.722-0.912c-1.847,0.668,3.044,3.624,3.044,3.624
			s-5.932-3.526-7.044-2.271c-1.113,1.255,4.552,4.846,4.552,4.846s-4.382-1.777-5.331-0.9c-0.949,0.877,3.083,3.671,3.083,3.671
			s-3.616-1.057-4.409-0.471c-0.792,0.585,2.327,3.343,4.352,4.131c2.025,0.787,2.494-2.095,2.494-2.095s2.016-1.613,1.815-2.809
			c0,0,2.073-1.259,2.28-2.637C166.465,247.755,169.418,245.393,167.351,243.578z"/>
	</g>
</g>
<g id="DESIGNED_BY_FREEPIK">
	<g>
		<g id="XMLID_1_">
			<g id="XMLID_20_">
				<path id="XMLID_28_" style="fill:#112129;" d="M260.104,465.465c-0.432,0.443-0.803,0.931-1.108,1.453l-0.465-0.241
					c-0.067-0.298-0.349-0.503-0.659-0.466c-0.331,0.039-0.568,0.339-0.529,0.67c0.039,0.331,0.339,0.568,0.67,0.529
					c0.065-0.008,0.127-0.026,0.183-0.052l0.452,0.234c-0.251,0.554-0.433,1.139-0.539,1.744l0.747,0.132
					c0.23-1.306,0.85-2.507,1.792-3.473L260.104,465.465z"/>
				<path id="XMLID_27_" style="fill:#112129;" d="M265.592,463.163c-0.171,0-0.341,0.006-0.51,0.017l-0.074-0.626
					c0.188-0.149,0.296-0.389,0.266-0.645c-0.046-0.393-0.402-0.674-0.795-0.628c-0.393,0.046-0.674,0.402-0.628,0.795
					c0.03,0.254,0.189,0.461,0.405,0.564l0.073,0.624c-0.714,0.116-1.403,0.332-2.06,0.646l0.327,0.684
					c0.934-0.447,1.942-0.673,2.995-0.673c0.496,0,0.993,0.053,1.475,0.158l0.161-0.741
					C266.692,463.222,266.142,463.163,265.592,463.163z"/>
				<path id="XMLID_26_" style="fill:#112129;" d="M272.194,465.711c0.331-0.04,0.566-0.341,0.526-0.672
					c-0.04-0.331-0.341-0.566-0.672-0.526c-0.309,0.038-0.535,0.304-0.53,0.609l-0.416,0.363c-0.418-0.43-0.89-0.813-1.408-1.139
					l-0.404,0.641c1.134,0.715,2.021,1.726,2.563,2.925l0.691-0.313c-0.251-0.554-0.568-1.072-0.942-1.545l0.402-0.351
					C272.065,465.716,272.129,465.719,272.194,465.711z"/>
				<path id="XMLID_25_" style="fill:#112129;" d="M265.044,473.372c-0.386,0.023-0.775,0.035-1.157,0.035
					c-0.88,0-1.733-0.061-2.478-0.179c-0.39-0.062-0.846-0.155-1.27-0.292c1.046,1.861,3.069,3.125,5.388,3.125
					c2.855,0,5.262-1.916,5.95-4.504c-0.682,0.449-1.505,0.825-2.459,1.123C267.839,473.047,266.464,473.286,265.044,473.372z"/>
				<path id="XMLID_21_" style="fill:#112129;" d="M265.592,464.68c-3.352,0-6.08,2.666-6.08,5.943c0,0.426,0.046,0.849,0.137,1.261
					c0.673,0.483,2.706,0.89,5.348,0.731c2.879-0.173,5.297-0.957,6.672-2.159c-0.005-0.195-0.021-0.39-0.045-0.582
					C271.244,466.913,268.65,464.68,265.592,464.68z M263.432,471.194c-1.02,0-1.85-0.83-1.85-1.85c0-1.02,0.83-1.85,1.85-1.85
					c1.02,0,1.85,0.83,1.85,1.85C265.282,470.365,264.452,471.194,263.432,471.194z M268.17,470.286c-0.75,0-1.36-0.61-1.36-1.36
					s0.61-1.361,1.36-1.361c0.75,0,1.361,0.61,1.361,1.361S268.92,470.286,268.17,470.286z"/>
			</g>
			<path id="XMLID_18_" style="fill:#112129;" d="M281.595,466.547c-0.295-0.116-0.805-0.309-1.382-0.237
				c-0.551,0.069-0.844,0.341-0.844,1.007v0.866h2.228v1.717h-2.228v5.455h-1.932v-5.455h-1.34v-1.717h1.34v-0.888
				c0-1.68,0.896-2.783,2.568-2.783c0.643,0,1.157,0.122,1.59,0.308L281.595,466.547z"/>
			<path id="XMLID_16_" style="fill:#112129;" d="M286.298,469.879c-0.177-0.03-0.358-0.046-0.526-0.046
				c-0.896,0-1.51,0.548-1.51,1.614v3.908h-1.932v-7.172h1.873v0.785c0.451-0.673,1.14-0.977,2.021-0.977
				c0.414,0,0.848,0.128,1.094,0.337L286.298,469.879z"/>
			<path id="XMLID_13_" style="fill:#112129;" d="M293.965,471.757c0,0.222-0.015,0.489-0.037,0.651h-5.085
				c0.207,1.036,0.933,1.488,1.843,1.488c0.622,0,1.295-0.252,1.813-0.688l1.132,1.243c-0.814,0.748-1.85,1.088-3.057,1.088
				c-2.198,0-3.723-1.495-3.723-3.753c0-2.258,1.48-3.797,3.627-3.797C292.544,467.99,293.958,469.522,293.965,471.757z
				 M288.851,471.091h3.175c-0.177-0.918-0.733-1.436-1.562-1.436C289.554,469.655,289.021,470.203,288.851,471.091z"/>
			<path id="XMLID_10_" style="fill:#112129;" d="M301.618,471.757c0,0.222-0.015,0.489-0.037,0.651h-5.085
				c0.207,1.036,0.933,1.488,1.843,1.488c0.622,0,1.295-0.252,1.813-0.688l1.132,1.243c-0.814,0.748-1.85,1.088-3.057,1.088
				c-2.198,0-3.723-1.495-3.723-3.753c0-2.258,1.48-3.797,3.627-3.797C300.197,467.99,301.611,469.522,301.618,471.757z
				 M296.504,471.091h3.175c-0.178-0.918-0.733-1.436-1.562-1.436C297.207,469.655,296.674,470.203,296.504,471.091z"/>
			<path id="XMLID_7_" style="fill:#112129;" d="M309.964,471.764c0,2.154-1.495,3.775-3.471,3.775
				c-0.962,0-1.643-0.378-2.109-0.933v3.708h-1.924v-10.133h1.887v0.792c0.466-0.585,1.155-0.984,2.139-0.984
				C308.469,467.99,309.964,469.61,309.964,471.764z M304.287,471.764c0,1.132,0.747,1.976,1.843,1.976
				c1.14,0,1.85-0.881,1.85-1.976c0-1.095-0.71-1.976-1.85-1.976C305.035,469.788,304.287,470.632,304.287,471.764z"/>
			<path id="XMLID_4_" style="fill:#112129;" d="M313.068,465.836c0,0.696-0.54,1.229-1.236,1.229c-0.696,0-1.229-0.533-1.229-1.229
				c0-0.696,0.533-1.243,1.229-1.243C312.527,464.592,313.068,465.14,313.068,465.836z M312.809,475.354h-1.932v-7.172h1.932
				V475.354z"/>
			<path id="XMLID_2_" style="fill:#112129;" d="M316.032,470.736l2.701-2.554h2.368l-3.479,3.375l3.501,3.797h-2.376l-2.716-2.901
				v2.901H314.1v-10.658h1.932V470.736z"/>
		</g>
		<g>
			<path style="fill:#112129;" d="M184.412,475.289v-1.055c-0.527,0.718-1.391,1.23-2.387,1.23c-1.846,0-3.149-1.406-3.149-3.706
				c0-2.256,1.289-3.721,3.149-3.721c0.952,0,1.816,0.469,2.387,1.245v-3.765h1.099v9.77H184.412z M184.412,473.37v-3.208
				c-0.395-0.615-1.245-1.143-2.124-1.143c-1.421,0-2.27,1.172-2.27,2.739c0,1.567,0.85,2.724,2.27,2.724
				C183.168,474.483,184.017,473.986,184.412,473.37z"/>
			<path style="fill:#112129;" d="M186.932,471.744c0-2.051,1.465-3.706,3.486-3.706c2.139,0,3.398,1.67,3.398,3.794v0.279h-5.727
				c0.088,1.333,1.025,2.446,2.549,2.446c0.805,0,1.626-0.322,2.182-0.894l0.527,0.718c-0.703,0.703-1.655,1.084-2.812,1.084
				C188.44,475.465,186.932,473.956,186.932,471.744z M190.403,468.947c-1.509,0-2.256,1.274-2.314,2.358h4.643
				C192.718,470.25,192.015,468.947,190.403,468.947z"/>
			<path style="fill:#112129;" d="M194.607,474.351l0.571-0.791c0.469,0.542,1.362,1.011,2.329,1.011c1.084,0,1.67-0.513,1.67-1.216
				c0-1.714-4.38-0.659-4.38-3.281c0-1.098,0.952-2.036,2.636-2.036c1.201,0,2.051,0.454,2.622,1.026l-0.513,0.762
				c-0.424-0.513-1.201-0.894-2.109-0.894c-0.967,0-1.567,0.483-1.567,1.113c0,1.552,4.38,0.527,4.38,3.281
				c0,1.187-0.952,2.138-2.783,2.138C196.306,475.465,195.325,475.113,194.607,474.351z"/>
			<path style="fill:#112129;" d="M201.477,466.471c0-0.41,0.337-0.747,0.732-0.747c0.41,0,0.747,0.337,0.747,0.747
				c0,0.41-0.337,0.732-0.747,0.732C201.814,467.203,201.477,466.881,201.477,466.471z M201.667,475.289v-7.075h1.099v7.075H201.667
				z"/>
			<path style="fill:#112129;" d="M204.582,477.105l0.556-0.82c0.586,0.703,1.289,0.967,2.3,0.967c1.172,0,2.27-0.571,2.27-2.124
				v-1.011c-0.513,0.718-1.377,1.26-2.373,1.26c-1.845,0-3.149-1.377-3.149-3.662c0-2.27,1.289-3.677,3.149-3.677
				c0.952,0,1.802,0.469,2.373,1.245v-1.069h1.098v6.87c0,2.344-1.641,3.076-3.369,3.076
				C206.237,478.16,205.417,477.926,204.582,477.105z M209.709,473.253v-3.091c-0.381-0.615-1.23-1.143-2.109-1.143
				c-1.421,0-2.27,1.128-2.27,2.695c0,1.553,0.849,2.695,2.27,2.695C208.478,474.41,209.328,473.868,209.709,473.253z"/>
			<path style="fill:#112129;" d="M217.413,475.289v-4.629c0-1.245-0.63-1.641-1.582-1.641c-0.865,0-1.685,0.527-2.095,1.099v5.17
				h-1.099v-7.075h1.099v1.025c0.498-0.586,1.465-1.201,2.519-1.201c1.48,0,2.256,0.747,2.256,2.285v4.966H217.413z"/>
			<path style="fill:#112129;" d="M219.932,471.744c0-2.051,1.465-3.706,3.486-3.706c2.139,0,3.398,1.67,3.398,3.794v0.279h-5.727
				c0.088,1.333,1.025,2.446,2.549,2.446c0.806,0,1.626-0.322,2.183-0.894l0.527,0.718c-0.703,0.703-1.655,1.084-2.812,1.084
				C221.441,475.465,219.932,473.956,219.932,471.744z M223.404,468.947c-1.509,0-2.256,1.274-2.314,2.358h4.643
				C225.718,470.25,225.015,468.947,223.404,468.947z"/>
			<path style="fill:#112129;" d="M233.35,475.289v-1.055c-0.527,0.718-1.392,1.23-2.388,1.23c-1.846,0-3.149-1.406-3.149-3.706
				c0-2.256,1.289-3.721,3.149-3.721c0.952,0,1.817,0.469,2.388,1.245v-3.765h1.098v9.77H233.35z M233.35,473.37v-3.208
				c-0.396-0.615-1.245-1.143-2.124-1.143c-1.421,0-2.27,1.172-2.27,2.739c0,1.567,0.849,2.724,2.27,2.724
				C232.105,474.483,232.954,473.986,233.35,473.37z"/>
			<path style="fill:#112129;" d="M239.692,475.289v-9.77h1.098v3.765c0.572-0.776,1.421-1.245,2.388-1.245
				c1.845,0,3.149,1.465,3.149,3.721c0,2.299-1.304,3.706-3.149,3.706c-0.996,0-1.86-0.513-2.388-1.23v1.055H239.692z
				 M242.9,474.483c1.436,0,2.285-1.157,2.285-2.724c0-1.568-0.85-2.739-2.285-2.739c-0.864,0-1.728,0.527-2.109,1.143v3.208
				C241.171,473.986,242.036,474.483,242.9,474.483z"/>
			<path style="fill:#112129;" d="M247.528,477.061c0.161,0.073,0.425,0.117,0.601,0.117c0.483,0,0.805-0.161,1.055-0.747
				l0.469-1.069l-2.959-7.148h1.187l2.358,5.8l2.344-5.8h1.201l-3.545,8.51c-0.425,1.025-1.143,1.421-2.08,1.435
				c-0.234,0-0.601-0.044-0.806-0.103L247.528,477.061z"/>
		</g>
	</g>
</g>
</svg>
